<svg xmlns="http://www.w3.org/2000/svg" xmlns:xlink="http://www.w3.org/1999/xlink" width="1280" height="720" viewBox="0 0 1280 720"><rect x="742" y="24" width="15" height="15" rx="2" ry="2" fill="#FFFFFF" opacity="0.2"/><rect x="763" y="24" width="15" height="15" rx="2" ry="2" fill="#FFFFFF" opacity="0.2"/><rect x="784" y="24" width="15" height="15" rx="2" ry="2" fill="#FFFFFF" opacity="0.2"/><rect x="805" y="24" width="15" height="15" rx="2" ry="2" fill="#FFFFFF" opacity="0.2"/><rect x="826" y="24" width="15" height="15" rx="2" ry="2" fill="#FFFFFF" opacity="0.2"/><rect x="847" y="24" width="15" height="15" rx="2" ry="2" fill="#FFFFFF" opacity="0.2"/><rect x="868" y="24" width="15" height="15" rx="2" ry="2" fill="#FFFFFF" opacity="0.2"/><rect x="889" y="24" width="15" height="15" rx="2" ry="2" fill="#FFFFFF" opacity="0.2"/><rect x="910" y="24" width="15" height="15" rx="2" ry="2" fill="#FFFFFF" opacity="0.2"/><rect x="931" y="24" width="15" height="15" rx="2" ry="2" fill="#FFFFFF" opacity="0.2"/><rect x="952" y="24" width="15" height="15" rx="2" ry="2" fill="#FFFFFF" opacity="0.2"/><rect x="973" y="24" width="15" height="15" rx="2" ry="2" fill="#FFFFFF" opacity="0.2"/><rect x="994" y="24" width="15" height="15" rx="2" ry="2" fill="#FFFFFF" opacity="0.2"/><rect x="1015" y="24" width="15" height="15" rx="2" ry="2" fill="#FFFFFF" opacity="0.2"/><rect x="1036" y="24" width="15" height="15" rx="2" ry="2" fill="#FFFFFF" opacity="0.2"/><rect x="1099" y="24" width="15" height="15" rx="2" ry="2" fill="#FFFFFF" opacity="0.55"/><rect x="1183" y="24" width="15" height="15" rx="2" ry="2" fill="#FFFFFF" opacity="0.55"/><rect x="1246" y="24" width="15" height="15" rx="2" ry="2" fill="#FFFFFF" opacity="0.55"/><rect x="742" y="45" width="15" height="15" rx="2" ry="2" fill="#FFFFFF" opacity="0.2"/><rect x="763" y="45" width="15" height="15" rx="2" ry="2" fill="#FFFFFF" opacity="0.2"/><rect x="784" y="45" width="15" height="15" rx="2" ry="2" fill="#FFFFFF" opacity="0.2"/><rect x="805" y="45" width="15" height="15" rx="2" ry="2" fill="#FFFFFF" opacity="0.2"/><rect x="826" y="45" width="15" height="15" rx="2" ry="2" fill="#FFFFFF" opacity="0.2"/><rect x="847" y="45" width="15" height="15" rx="2" ry="2" fill="#FFFFFF" opacity="0.2"/><rect x="868" y="45" width="15" height="15" rx="2" ry="2" fill="#FFFFFF" opacity="0.2"/><rect x="889" y="45" width="15" height="15" rx="2" ry="2" fill="#FFFFFF" opacity="0.2"/><rect x="910" y="45" width="15" height="15" rx="2" ry="2" fill="#FFFFFF" opacity="0.2"/><rect x="931" y="45" width="15" height="15" rx="2" ry="2" fill="#FFFFFF" opacity="0.2"/><rect x="952" y="45" width="15" height="15" rx="2" ry="2" fill="#FFFFFF" opacity="0.2"/><rect x="973" y="45" width="15" height="15" rx="2" ry="2" fill="#FFFFFF" opacity="0.2"/><rect x="994" y="45" width="15" height="15" rx="2" ry="2" fill="#FFFFFF" opacity="0.2"/><rect x="1015" y="45" width="15" height="15" rx="2" ry="2" fill="#FFFFFF" opacity="0.2"/><rect x="1036" y="45" width="15" height="15" rx="2" ry="2" fill="#FFFFFF" opacity="0.2"/><rect x="1078" y="45" width="15" height="15" rx="2" ry="2" fill="#FFFFFF" opacity="0.55"/><rect x="1162" y="45" width="15" height="15" rx="2" ry="2" fill="#FFFFFF" opacity="0.55"/><rect x="1225" y="45" width="15" height="15" rx="2" ry="2" fill="#FFFFFF" opacity="0.55"/><rect x="742" y="66" width="15" height="15" rx="2" ry="2" fill="#FFFFFF" opacity="0.2"/><rect x="763" y="66" width="15" height="15" rx="2" ry="2" fill="#FFFFFF" opacity="0.2"/><rect x="784" y="66" width="15" height="15" rx="2" ry="2" fill="#FFFFFF" opacity="0.2"/><rect x="805" y="66" width="15" height="15" rx="2" ry="2" fill="#FFFFFF" opacity="0.2"/><rect x="826" y="66" width="15" height="15" rx="2" ry="2" fill="#FFFFFF" opacity="0.2"/><rect x="847" y="66" width="15" height="15" rx="2" ry="2" fill="#FFFFFF" opacity="0.2"/><rect x="868" y="66" width="15" height="15" rx="2" ry="2" fill="#FFFFFF" opacity="0.2"/><rect x="889" y="66" width="15" height="15" rx="2" ry="2" fill="#FFFFFF" opacity="0.2"/><rect x="910" y="66" width="15" height="15" rx="2" ry="2" fill="#FFFFFF" opacity="0.2"/><rect x="931" y="66" width="15" height="15" rx="2" ry="2" fill="#FFFFFF" opacity="0.2"/><rect x="952" y="66" width="15" height="15" rx="2" ry="2" fill="#FFFFFF" opacity="0.2"/><rect x="973" y="66" width="15" height="15" rx="2" ry="2" fill="#FFFFFF" opacity="0.2"/><rect x="994" y="66" width="15" height="15" rx="2" ry="2" fill="#FFFFFF" opacity="0.2"/><rect x="1015" y="66" width="15" height="15" rx="2" ry="2" fill="#FFFFFF" opacity="0.2"/><rect x="1036" y="66" width="15" height="15" rx="2" ry="2" fill="#FFFFFF" opacity="0.2"/><rect x="1057" y="66" width="15" height="15" rx="2" ry="2" fill="#FFFFFF" opacity="0.55"/><rect x="1141" y="66" width="15" height="15" rx="2" ry="2" fill="#FFFFFF" opacity="0.55"/><rect x="1204" y="66" width="15" height="15" rx="2" ry="2" fill="#FFFFFF" opacity="0.55"/><rect x="742" y="87" width="15" height="15" rx="2" ry="2" fill="#FFFFFF" opacity="0.2"/><rect x="763" y="87" width="15" height="15" rx="2" ry="2" fill="#FFFFFF" opacity="0.2"/><rect x="784" y="87" width="15" height="15" rx="2" ry="2" fill="#FFFFFF" opacity="0.2"/><rect x="805" y="87" width="15" height="15" rx="2" ry="2" fill="#FFFFFF" opacity="0.2"/><rect x="826" y="87" width="15" height="15" rx="2" ry="2" fill="#FFFFFF" opacity="0.2"/><rect x="847" y="87" width="15" height="15" rx="2" ry="2" fill="#FFFFFF" opacity="0.2"/><rect x="868" y="87" width="15" height="15" rx="2" ry="2" fill="#FFFFFF" opacity="0.2"/><rect x="889" y="87" width="15" height="15" rx="2" ry="2" fill="#FFFFFF" opacity="0.2"/><rect x="910" y="87" width="15" height="15" rx="2" ry="2" fill="#FFFFFF" opacity="0.2"/><rect x="931" y="87" width="15" height="15" rx="2" ry="2" fill="#FFFFFF" opacity="0.2"/><rect x="952" y="87" width="15" height="15" rx="2" ry="2" fill="#FFFFFF" opacity="0.2"/><rect x="973" y="87" width="15" height="15" rx="2" ry="2" fill="#FFFFFF" opacity="0.2"/><rect x="994" y="87" width="15" height="15" rx="2" ry="2" fill="#FFFFFF" opacity="0.2"/><rect x="1015" y="87" width="15" height="15" rx="2" ry="2" fill="#FFFFFF" opacity="0.2"/><rect x="1036" y="87" width="15" height="15" rx="2" ry="2" fill="#FFFFFF" opacity="0.2"/><rect x="1120" y="87" width="15" height="15" rx="2" ry="2" fill="#FFFFFF" opacity="0.55"/><rect x="1183" y="87" width="15" height="15" rx="2" ry="2" fill="#FFFFFF" opacity="0.55"/><rect x="1267" y="87" width="15" height="15" rx="2" ry="2" fill="#FFFFFF" opacity="0.55"/><rect x="742" y="108" width="15" height="15" rx="2" ry="2" fill="#FFFFFF" opacity="0.2"/><rect x="763" y="108" width="15" height="15" rx="2" ry="2" fill="#FFFFFF" opacity="0.2"/><rect x="784" y="108" width="15" height="15" rx="2" ry="2" fill="#FFFFFF" opacity="0.2"/><rect x="805" y="108" width="15" height="15" rx="2" ry="2" fill="#FFFFFF" opacity="0.2"/><rect x="826" y="108" width="15" height="15" rx="2" ry="2" fill="#FFFFFF" opacity="0.2"/><rect x="847" y="108" width="15" height="15" rx="2" ry="2" fill="#FFFFFF" opacity="0.2"/><rect x="868" y="108" width="15" height="15" rx="2" ry="2" fill="#FFFFFF" opacity="0.2"/><rect x="889" y="108" width="15" height="15" rx="2" ry="2" fill="#FFFFFF" opacity="0.2"/><rect x="910" y="108" width="15" height="15" rx="2" ry="2" fill="#FFFFFF" opacity="0.2"/><rect x="931" y="108" width="15" height="15" rx="2" ry="2" fill="#FFFFFF" opacity="0.2"/><rect x="952" y="108" width="15" height="15" rx="2" ry="2" fill="#FFFFFF" opacity="0.2"/><rect x="973" y="108" width="15" height="15" rx="2" ry="2" fill="#FFFFFF" opacity="0.2"/><rect x="994" y="108" width="15" height="15" rx="2" ry="2" fill="#FFFFFF" opacity="0.2"/><rect x="1015" y="108" width="15" height="15" rx="2" ry="2" fill="#FFFFFF" opacity="0.2"/><rect x="1036" y="108" width="15" height="15" rx="2" ry="2" fill="#FFFFFF" opacity="0.2"/><rect x="1099" y="108" width="15" height="15" rx="2" ry="2" fill="#FFFFFF" opacity="0.55"/><rect x="1162" y="108" width="15" height="15" rx="2" ry="2" fill="#FFFFFF" opacity="0.55"/><rect x="1246" y="108" width="15" height="15" rx="2" ry="2" fill="#FFFFFF" opacity="0.55"/><rect x="742" y="129" width="15" height="15" rx="2" ry="2" fill="#FFFFFF" opacity="0.2"/><rect x="763" y="129" width="15" height="15" rx="2" ry="2" fill="#FFFFFF" opacity="0.2"/><rect x="784" y="129" width="15" height="15" rx="2" ry="2" fill="#FFFFFF" opacity="0.2"/><rect x="805" y="129" width="15" height="15" rx="2" ry="2" fill="#FFFFFF" opacity="0.2"/><rect x="826" y="129" width="15" height="15" rx="2" ry="2" fill="#FFFFFF" opacity="0.2"/><rect x="847" y="129" width="15" height="15" rx="2" ry="2" fill="#FFFFFF" opacity="0.2"/><rect x="868" y="129" width="15" height="15" rx="2" ry="2" fill="#FFFFFF" opacity="0.2"/><rect x="889" y="129" width="15" height="15" rx="2" ry="2" fill="#FFFFFF" opacity="0.2"/><rect x="910" y="129" width="15" height="15" rx="2" ry="2" fill="#FFFFFF" opacity="0.2"/><rect x="931" y="129" width="15" height="15" rx="2" ry="2" fill="#FFFFFF" opacity="0.2"/><rect x="952" y="129" width="15" height="15" rx="2" ry="2" fill="#FFFFFF" opacity="0.2"/><rect x="973" y="129" width="15" height="15" rx="2" ry="2" fill="#FFFFFF" opacity="0.2"/><rect x="994" y="129" width="15" height="15" rx="2" ry="2" fill="#FFFFFF" opacity="0.2"/><rect x="1015" y="129" width="15" height="15" rx="2" ry="2" fill="#FFFFFF" opacity="0.2"/><rect x="1036" y="129" width="15" height="15" rx="2" ry="2" fill="#FFFFFF" opacity="0.2"/><rect x="1078" y="129" width="15" height="15" rx="2" ry="2" fill="#FFFFFF" opacity="0.55"/><rect x="1141" y="129" width="15" height="15" rx="2" ry="2" fill="#FFFFFF" opacity="0.55"/><rect x="1225" y="129" width="15" height="15" rx="2" ry="2" fill="#FFFFFF" opacity="0.55"/><rect x="742" y="150" width="15" height="15" rx="2" ry="2" fill="#FFFFFF" opacity="0.2"/><rect x="763" y="150" width="15" height="15" rx="2" ry="2" fill="#FFFFFF" opacity="0.2"/><rect x="784" y="150" width="15" height="15" rx="2" ry="2" fill="#FFFFFF" opacity="0.2"/><rect x="805" y="150" width="15" height="15" rx="2" ry="2" fill="#FFFFFF" opacity="0.2"/><rect x="826" y="150" width="15" height="15" rx="2" ry="2" fill="#FFFFFF" opacity="0.2"/><rect x="847" y="150" width="15" height="15" rx="2" ry="2" fill="#FFFFFF" opacity="0.2"/><rect x="868" y="150" width="15" height="15" rx="2" ry="2" fill="#FFFFFF" opacity="0.2"/><rect x="889" y="150" width="15" height="15" rx="2" ry="2" fill="#FFFFFF" opacity="0.2"/><rect x="910" y="150" width="15" height="15" rx="2" ry="2" fill="#FFFFFF" opacity="0.2"/><rect x="931" y="150" width="15" height="15" rx="2" ry="2" fill="#FFFFFF" opacity="0.2"/><rect x="952" y="150" width="15" height="15" rx="2" ry="2" fill="#FFFFFF" opacity="0.2"/><rect x="973" y="150" width="15" height="15" rx="2" ry="2" fill="#FFFFFF" opacity="0.2"/><rect x="994" y="150" width="15" height="15" rx="2" ry="2" fill="#FFFFFF" opacity="0.2"/><rect x="1015" y="150" width="15" height="15" rx="2" ry="2" fill="#FFFFFF" opacity="0.2"/><rect x="1036" y="150" width="15" height="15" rx="2" ry="2" fill="#FFFFFF" opacity="0.2"/><rect x="1057" y="150" width="15" height="15" rx="2" ry="2" fill="#FFFFFF" opacity="0.55"/><rect x="1120" y="150" width="15" height="15" rx="2" ry="2" fill="#FFFFFF" opacity="0.55"/><rect x="1204" y="150" width="15" height="15" rx="2" ry="2" fill="#FFFFFF" opacity="0.55"/><rect x="1267" y="150" width="15" height="15" rx="2" ry="2" fill="#FFFFFF" opacity="0.55"/><rect x="742" y="171" width="15" height="15" rx="2" ry="2" fill="#FFFFFF" opacity="0.2"/><rect x="763" y="171" width="15" height="15" rx="2" ry="2" fill="#FFFFFF" opacity="0.2"/><rect x="784" y="171" width="15" height="15" rx="2" ry="2" fill="#FFFFFF" opacity="0.2"/><rect x="805" y="171" width="15" height="15" rx="2" ry="2" fill="#FFFFFF" opacity="0.2"/><rect x="826" y="171" width="15" height="15" rx="2" ry="2" fill="#FFFFFF" opacity="0.2"/><rect x="847" y="171" width="15" height="15" rx="2" ry="2" fill="#FFFFFF" opacity="0.2"/><rect x="868" y="171" width="15" height="15" rx="2" ry="2" fill="#FFFFFF" opacity="0.2"/><rect x="889" y="171" width="15" height="15" rx="2" ry="2" fill="#FFFFFF" opacity="0.2"/><rect x="910" y="171" width="15" height="15" rx="2" ry="2" fill="#FFFFFF" opacity="0.2"/><rect x="931" y="171" width="15" height="15" rx="2" ry="2" fill="#FFFFFF" opacity="0.2"/><rect x="952" y="171" width="15" height="15" rx="2" ry="2" fill="#FFFFFF" opacity="0.2"/><rect x="973" y="171" width="15" height="15" rx="2" ry="2" fill="#FFFFFF" opacity="0.2"/><rect x="994" y="171" width="15" height="15" rx="2" ry="2" fill="#FFFFFF" opacity="0.2"/><rect x="1015" y="171" width="15" height="15" rx="2" ry="2" fill="#FFFFFF" opacity="0.2"/><rect x="1036" y="171" width="15" height="15" rx="2" ry="2" fill="#FFFFFF" opacity="0.2"/><rect x="1099" y="171" width="15" height="15" rx="2" ry="2" fill="#FFFFFF" opacity="0.55"/><rect x="1183" y="171" width="15" height="15" rx="2" ry="2" fill="#FFFFFF" opacity="0.55"/><rect x="1246" y="171" width="15" height="15" rx="2" ry="2" fill="#FFFFFF" opacity="0.55"/><text x="1264" y="214" font-family="Calibri" font-size="15" font-weight="bold" fill="#7FA8D2" text-anchor="end" xml:space="preserve">tokens  →  concepts</text></svg>