<svg xmlns="http://www.w3.org/2000/svg" xmlns:xlink="http://www.w3.org/1999/xlink" width="1152" height="410" viewBox="0 0 1152 410"><defs><marker id="arw-grey" viewBox="0 0 10 10" refX="8.5" refY="5" markerWidth="6" markerHeight="6" orient="auto-start-reverse"><path d="M 0 1 L 9 5 L 0 9 z" fill="#6E7B8B"/></marker><marker id="arw-red" viewBox="0 0 10 10" refX="8.5" refY="5" markerWidth="6" markerHeight="6" orient="auto-start-reverse"><path d="M 0 1 L 9 5 L 0 9 z" fill="#C00000"/></marker></defs><text x="0" y="20" font-family="Calibri" font-size="16" font-weight="bold" fill="#101010" text-anchor="start" xml:space="preserve">Omnimodal tokens</text><text x="1152" y="20" font-family="Calibri" font-size="16" font-weight="bold" fill="#101010" text-anchor="end" xml:space="preserve">Unified correction</text><rect x="0" y="54" width="108" height="40" rx="5" ry="5" fill="#DCE8F5" stroke="#004282" stroke-width="1.3"/><text x="54" y="79" font-family="Calibri" font-size="15" font-weight="bold" fill="#004282" text-anchor="middle" xml:space="preserve">T</text><path d="M 114 74 L 170 170" stroke="#6E7B8B" stroke-width="1.3" fill="none" stroke-linecap="round" marker-end="url(#arw-grey)"/><rect x="0" y="116" width="108" height="40" rx="5" ry="5" fill="#EEE8F6" stroke="#7651A8" stroke-width="1.3"/><text x="54" y="141" font-family="Calibri" font-size="15" font-weight="bold" fill="#7651A8" text-anchor="middle" xml:space="preserve">V</text><path d="M 114 136 L 170 170" stroke="#6E7B8B" stroke-width="1.3" fill="none" stroke-linecap="round" marker-end="url(#arw-grey)"/><rect x="0" y="178" width="108" height="40" rx="5" ry="5" fill="#DDF2F6" stroke="#1889A6" stroke-width="1.3"/><text x="54" y="203" font-family="Calibri" font-size="15" font-weight="bold" fill="#1889A6" text-anchor="middle" xml:space="preserve">Vd</text><path d="M 114 198 L 170 170" stroke="#6E7B8B" stroke-width="1.3" fill="none" stroke-linecap="round" marker-end="url(#arw-grey)"/><rect x="0" y="240" width="108" height="40" rx="5" ry="5" fill="#FBEFD9" stroke="#E8A33D" stroke-width="1.3"/><text x="54" y="265" font-family="Calibri" font-size="15" font-weight="bold" fill="#E8A33D" text-anchor="middle" xml:space="preserve">A</text><path d="M 114 260 L 170 170" stroke="#6E7B8B" stroke-width="1.3" fill="none" stroke-linecap="round" marker-end="url(#arw-grey)"/><ellipse cx="320" cy="174" rx="122" ry="112" fill="#F5F8FB" stroke="#A9BDCF" stroke-width="1.2" stroke-dasharray="5 4"/><ellipse cx="840" cy="174" rx="122" ry="112" fill="#F5F8FB" stroke="#A9BDCF" stroke-width="1.2" stroke-dasharray="5 4"/><text x="320" y="44" font-family="Calibri" font-size="14" font-weight="bold" fill="#6E7B8B" text-anchor="middle" xml:space="preserve">noise distribution  p₀</text><text x="840" y="44" font-family="Calibri" font-size="14" font-weight="bold" fill="#004282" text-anchor="middle" xml:space="preserve">data distribution  p₁</text><path d="M 250 120 C 470 62, 650 174, 766 116" stroke="#004282" stroke-width="2.1" fill="none" stroke-linecap="round" opacity="0.72"/><circle cx="250" cy="120" r="5" fill="#6E7B8B"/><circle cx="766" cy="116" r="6" fill="#004282" stroke="#FFFFFF" stroke-width="1"/><path d="M 270 168 C 470 240, 650 82, 796 154" stroke="#7651A8" stroke-width="2.1" fill="none" stroke-linecap="round" opacity="0.72"/><circle cx="270" cy="168" r="5" fill="#6E7B8B"/><circle cx="796" cy="154" r="6" fill="#7651A8" stroke="#FFFFFF" stroke-width="1"/><path d="M 300 226 C 470 168, 650 276, 814 218" stroke="#1889A6" stroke-width="2.1" fill="none" stroke-linecap="round" opacity="0.72"/><circle cx="300" cy="226" r="5" fill="#6E7B8B"/><circle cx="814" cy="218" r="6" fill="#1889A6" stroke="#FFFFFF" stroke-width="1"/><path d="M 352 118 C 470 190, 650 40, 858 112" stroke="#E8A33D" stroke-width="2.1" fill="none" stroke-linecap="round" opacity="0.72"/><circle cx="352" cy="118" r="5" fill="#6E7B8B"/><circle cx="858" cy="112" r="6" fill="#E8A33D" stroke="#FFFFFF" stroke-width="1"/><path d="M 370 180 C 470 122, 650 238, 882 180" stroke="#004282" stroke-width="2.1" fill="none" stroke-linecap="round" opacity="0.72"/><circle cx="370" cy="180" r="5" fill="#6E7B8B"/><circle cx="882" cy="180" r="6" fill="#004282" stroke="#FFFFFF" stroke-width="1"/><path d="M 340 236 C 470 308, 650 166, 866 238" stroke="#7651A8" stroke-width="2.1" fill="none" stroke-linecap="round" opacity="0.72"/><circle cx="340" cy="236" r="5" fill="#6E7B8B"/><circle cx="866" cy="238" r="6" fill="#7651A8" stroke="#FFFFFF" stroke-width="1"/><text x="580" y="88" font-family="Calibri" font-size="16" font-weight="bold" fill="#C00000" text-anchor="middle" xml:space="preserve">metric-induced probability paths</text><path d="M 452 102 L 694 102" stroke="#C00000" stroke-width="2" fill="none" stroke-linecap="round" marker-end="url(#arw-red)"/><rect x="480" y="248" width="200" height="56" rx="6" ry="6" fill="#FFFFFF" stroke="#004282" stroke-width="1.4"/><text x="580" y="272" font-family="Calibri" font-size="14" font-weight="bold" fill="#004282" text-anchor="middle" xml:space="preserve">kinetic optimal velocity</text><text x="535.47" y="294" font-family="Calibri" font-size="16" font-style="italic" fill="#101010" text-anchor="start" xml:space="preserve">v_t(x)  →  x_1</text><path d="M 964 174 L 1008 74" stroke="#6E7B8B" stroke-width="1.3" fill="none" stroke-linecap="round" marker-end="url(#arw-grey)"/><rect x="1016" y="54" width="136" height="40" rx="5" ry="5" fill="#DCE8F5" stroke="#004282" stroke-width="1.3"/><text x="1084" y="79" font-family="Calibri" font-size="14" font-weight="bold" fill="#004282" text-anchor="middle" xml:space="preserve">clean T</text><path d="M 964 174 L 1008 136" stroke="#6E7B8B" stroke-width="1.3" fill="none" stroke-linecap="round" marker-end="url(#arw-grey)"/><rect x="1016" y="116" width="136" height="40" rx="5" ry="5" fill="#EEE8F6" stroke="#7651A8" stroke-width="1.3"/><text x="1084" y="141" font-family="Calibri" font-size="14" font-weight="bold" fill="#7651A8" text-anchor="middle" xml:space="preserve">clean V</text><path d="M 964 174 L 1008 198" stroke="#6E7B8B" stroke-width="1.3" fill="none" stroke-linecap="round" marker-end="url(#arw-grey)"/><rect x="1016" y="178" width="136" height="40" rx="5" ry="5" fill="#DDF2F6" stroke="#1889A6" stroke-width="1.3"/><text x="1084" y="203" font-family="Calibri" font-size="14" font-weight="bold" fill="#1889A6" text-anchor="middle" xml:space="preserve">clean Vd</text><path d="M 964 174 L 1008 260" stroke="#6E7B8B" stroke-width="1.3" fill="none" stroke-linecap="round" marker-end="url(#arw-grey)"/><rect x="1016" y="240" width="136" height="40" rx="5" ry="5" fill="#FBEFD9" stroke="#E8A33D" stroke-width="1.3"/><text x="1084" y="265" font-family="Calibri" font-size="14" font-weight="bold" fill="#E8A33D" text-anchor="middle" xml:space="preserve">clean A</text><text x="405.65" y="350" font-family="Calibri" font-size="20" font-style="italic" fill="#101010" text-anchor="start" xml:space="preserve">L_CE = E</text><text x="473" y="354" font-family="Calibri" font-size="13.6" font-style="italic" fill="#101010" text-anchor="start" xml:space="preserve">t,x_1,x_t</text><text x="521.12" y="350" font-family="Calibri" font-size="20" font-style="italic" fill="#101010" text-anchor="start" xml:space="preserve"> [ − Σ_i log p</text><text x="618.97" y="354" font-family="Calibri" font-size="13.6" font-style="italic" fill="#101010" text-anchor="start" xml:space="preserve">1|t</text><text x="636.68" y="350" font-family="Calibri" font-size="20" font-style="italic" fill="#101010" text-anchor="start" xml:space="preserve">(x^i_1 | x_t) ]</text><text x="576" y="378" font-family="Calibri" font-size="14" font-weight="bold" fill="#6E7B8B" text-anchor="middle" xml:space="preserve">every position is predicted from the entire noisy multimodal sequence</text></svg>