<svg xmlns="http://www.w3.org/2000/svg" xmlns:xlink="http://www.w3.org/1999/xlink" width="1152" height="410" viewBox="0 0 1152 410"><defs><marker id="arw-grey" viewBox="0 0 10 10" refX="8.5" refY="5" markerWidth="6" markerHeight="6" orient="auto-start-reverse"><path d="M 0 1 L 9 5 L 0 9 z" fill="#6E7B8B"/></marker><marker id="arw-navy" viewBox="0 0 10 10" refX="8.5" refY="5" markerWidth="6" markerHeight="6" orient="auto-start-reverse"><path d="M 0 1 L 9 5 L 0 9 z" fill="#004282"/></marker></defs><text x="0" y="20" font-family="Calibri" font-size="16" font-weight="bold" fill="#101010" text-anchor="start" xml:space="preserve">Modality encoders</text><text x="468" y="20" font-family="Calibri" font-size="16" font-weight="bold" fill="#101010" text-anchor="start" xml:space="preserve">Unified discrete flow</text><text x="946" y="20" font-family="Calibri" font-size="16" font-weight="bold" fill="#101010" text-anchor="start" xml:space="preserve">Modality heads</text><rect x="0" y="54" width="148" height="48" rx="5" ry="5" fill="#DCE8F5" stroke="#004282" stroke-width="1.3"/><text x="74" y="83" font-family="Calibri" font-size="13.5" font-weight="bold" fill="#004282" text-anchor="middle" xml:space="preserve">Text tokenizer</text><path d="M 154 78 L 198 78" stroke="#004282" stroke-width="1.7" fill="none" stroke-linecap="round" marker-end="url(#arw-navy)"/><rect x="208" y="54" width="142" height="48" rx="5" ry="5" fill="#FFFFFF" stroke="#004282" stroke-width="1.2"/><text x="279" y="76" font-family="Calibri" font-size="12.5" font-weight="bold" fill="#004282" text-anchor="middle" xml:space="preserve">word embedding</text><text x="279" y="93" font-family="Calibri" font-size="11.5" fill="#6E7B8B" text-anchor="middle" xml:space="preserve">discrete sequence</text><path d="M 350 78 C 402 78, 410 174, 454 174" stroke="#004282" stroke-width="2.1" fill="none" stroke-linecap="round"/><rect x="0" y="142" width="148" height="48" rx="5" ry="5" fill="#EEE8F6" stroke="#7651A8" stroke-width="1.3"/><text x="74" y="171" font-family="Calibri" font-size="13.5" font-weight="bold" fill="#7651A8" text-anchor="middle" xml:space="preserve">Vision encoder</text><path d="M 154 166 L 198 166" stroke="#004282" stroke-width="1.7" fill="none" stroke-linecap="round" marker-end="url(#arw-navy)"/><rect x="208" y="142" width="142" height="48" rx="5" ry="5" fill="#FFFFFF" stroke="#7651A8" stroke-width="1.2"/><text x="279" y="164" font-family="Calibri" font-size="12.5" font-weight="bold" fill="#7651A8" text-anchor="middle" xml:space="preserve">codebook embedding</text><text x="279" y="181" font-family="Calibri" font-size="11.5" fill="#6E7B8B" text-anchor="middle" xml:space="preserve">discrete sequence</text><path d="M 350 166 C 402 166, 410 174, 454 174" stroke="#7651A8" stroke-width="2.1" fill="none" stroke-linecap="round"/><rect x="0" y="230" width="148" height="48" rx="5" ry="5" fill="#FBEFD9" stroke="#E8A33D" stroke-width="1.3"/><text x="74" y="259" font-family="Calibri" font-size="13.5" font-weight="bold" fill="#E8A33D" text-anchor="middle" xml:space="preserve">Audio encoder</text><path d="M 154 254 L 198 254" stroke="#004282" stroke-width="1.7" fill="none" stroke-linecap="round" marker-end="url(#arw-navy)"/><rect x="208" y="230" width="142" height="48" rx="5" ry="5" fill="#FFFFFF" stroke="#E8A33D" stroke-width="1.2"/><text x="279" y="252" font-family="Calibri" font-size="12.5" font-weight="bold" fill="#E8A33D" text-anchor="middle" xml:space="preserve">codebook embedding</text><text x="279" y="269" font-family="Calibri" font-size="11.5" fill="#6E7B8B" text-anchor="middle" xml:space="preserve">discrete sequence</text><path d="M 350 254 C 402 254, 410 174, 454 174" stroke="#E8A33D" stroke-width="2.1" fill="none" stroke-linecap="round"/><rect x="466" y="48" width="280" height="256" rx="8" ry="8" fill="#DCE8F5" stroke="#004282" stroke-width="1.8"/><rect x="496" y="74" width="220" height="34" rx="4" ry="4" fill="#FFFFFF" stroke="#004282" stroke-width="1.1"/><text x="606" y="95" font-family="Calibri" font-size="13" font-weight="bold" fill="#004282" text-anchor="middle" xml:space="preserve">multimodal self-attention</text><rect x="496" y="124" width="220" height="34" rx="4" ry="4" fill="#FFFFFF" stroke="#004282" stroke-width="1.1"/><text x="606" y="145" font-family="Calibri" font-size="13" font-weight="bold" fill="#004282" text-anchor="middle" xml:space="preserve">FFN</text><rect x="496" y="174" width="220" height="34" rx="4" ry="4" fill="#FFFFFF" stroke="#004282" stroke-width="1.1"/><text x="606" y="195" font-family="Calibri" font-size="13" font-weight="bold" fill="#004282" text-anchor="middle" xml:space="preserve">multimodal self-attention</text><rect x="496" y="224" width="220" height="34" rx="4" ry="4" fill="#FFFFFF" stroke="#004282" stroke-width="1.1"/><text x="606" y="245" font-family="Calibri" font-size="13" font-weight="bold" fill="#004282" text-anchor="middle" xml:space="preserve">FFN</text><text x="606" y="284" font-family="Calibri" font-size="13.5" font-weight="bold" fill="#004282" text-anchor="middle" xml:space="preserve">single encoder · deep feature fusion</text><path d="M 746 174 C 790 174, 790 66, 834 66" stroke="#004282" stroke-width="1.8" fill="none" stroke-linecap="round"/><rect x="844" y="42" width="138" height="48" rx="5" ry="5" fill="#DCE8F5" stroke="#004282" stroke-width="1.2"/><text x="913" y="71" font-family="Calibri" font-size="13.5" font-weight="bold" fill="#004282" text-anchor="middle" xml:space="preserve">LM head</text><path d="M 988 66 L 1028 66" stroke="#6E7B8B" stroke-width="1.5" fill="none" stroke-linecap="round" marker-end="url(#arw-grey)"/><text x="1040" y="70" font-family="Calibri" font-size="13.5" font-weight="bold" fill="#101010" text-anchor="start" xml:space="preserve">text</text><path d="M 746 174 C 790 174, 790 136, 834 136" stroke="#7651A8" stroke-width="1.8" fill="none" stroke-linecap="round"/><rect x="844" y="112" width="138" height="48" rx="5" ry="5" fill="#EEE8F6" stroke="#7651A8" stroke-width="1.2"/><text x="913" y="141" font-family="Calibri" font-size="13.5" font-weight="bold" fill="#7651A8" text-anchor="middle" xml:space="preserve">Vision head</text><path d="M 988 136 L 1028 136" stroke="#6E7B8B" stroke-width="1.5" fill="none" stroke-linecap="round" marker-end="url(#arw-grey)"/><text x="1040" y="140" font-family="Calibri" font-size="13.5" font-weight="bold" fill="#101010" text-anchor="start" xml:space="preserve">image · video</text><path d="M 746 174 C 790 174, 790 206, 834 206" stroke="#E8A33D" stroke-width="1.8" fill="none" stroke-linecap="round"/><rect x="844" y="182" width="138" height="48" rx="5" ry="5" fill="#FBEFD9" stroke="#E8A33D" stroke-width="1.2"/><text x="913" y="211" font-family="Calibri" font-size="13.5" font-weight="bold" fill="#E8A33D" text-anchor="middle" xml:space="preserve">Audio head</text><path d="M 988 206 L 1028 206" stroke="#6E7B8B" stroke-width="1.5" fill="none" stroke-linecap="round" marker-end="url(#arw-grey)"/><text x="1040" y="210" font-family="Calibri" font-size="13.5" font-weight="bold" fill="#101010" text-anchor="start" xml:space="preserve">speech · audio</text><path d="M 746 174 C 790 174, 790 276, 834 276" stroke="#1E7A46" stroke-width="1.8" fill="none" stroke-linecap="round"/><rect x="844" y="252" width="138" height="48" rx="5" ry="5" fill="#DFF0E4" stroke="#1E7A46" stroke-width="1.2"/><text x="913" y="281" font-family="Calibri" font-size="13.5" font-weight="bold" fill="#1E7A46" text-anchor="middle" xml:space="preserve">EOS feature</text><path d="M 988 276 L 1028 276" stroke="#6E7B8B" stroke-width="1.5" fill="none" stroke-linecap="round" marker-end="url(#arw-grey)"/><text x="1040" y="280" font-family="Calibri" font-size="13.5" font-weight="bold" fill="#101010" text-anchor="start" xml:space="preserve">retrieval</text><rect x="0" y="326" width="552" height="56" rx="6" ry="6" fill="#F5F8FB" stroke="#B8C8D7" stroke-width="1.2"/><text x="18" y="349" font-family="Calibri" font-size="13.5" font-weight="bold" fill="#004282" text-anchor="start" xml:space="preserve">Representation warmup</text><text x="230" y="349" font-family="Calibri" font-size="16" font-style="italic" fill="#101010" text-anchor="start" xml:space="preserve">L^M_total = L^M_rec + L^M_sem</text><text x="18" y="370" font-family="Calibri" font-size="12.5" fill="#6E7B8B" text-anchor="start" xml:space="preserve">reconstruction preserves detail · semantics align modalities</text><rect x="576" y="326" width="576" height="56" rx="6" ry="6" fill="#F5F8FB" stroke="#B8C8D7" stroke-width="1.2"/><text x="594" y="349" font-family="Calibri" font-size="13.5" font-weight="bold" fill="#004282" text-anchor="start" xml:space="preserve">Joint flow training</text><text x="756" y="349" font-family="Calibri" font-size="16" font-style="italic" fill="#101010" text-anchor="start" xml:space="preserve">L = λ₁L_CE + λ₂L^V_rec + λ₃L^A_rec</text><text x="594" y="370" font-family="Calibri" font-size="12.5" fill="#6E7B8B" text-anchor="start" xml:space="preserve">reconstruction feedback prevents loss of fine-grained information</text></svg>