<svg xmlns="http://www.w3.org/2000/svg" xmlns:xlink="http://www.w3.org/1999/xlink" width="1280" height="720" viewBox="0 0 1280 720"><defs><marker id="arw-grey" viewBox="0 0 10 10" refX="8.5" refY="5" markerWidth="6" markerHeight="6" orient="auto-start-reverse"><path d="M 0 1 L 9 5 L 0 9 z" fill="#6E7B8B"/></marker><marker id="arw-navy" viewBox="0 0 10 10" refX="8.5" refY="5" markerWidth="6" markerHeight="6" orient="auto-start-reverse"><path d="M 0 1 L 9 5 L 0 9 z" fill="#004282"/></marker></defs><rect x="0" y="0" width="1280" height="720" fill="#FFFFFF"/><text x="64" y="107" font-family="Calibri" font-size="40" font-weight="bold" fill="#101010" text-anchor="start" xml:space="preserve"><tspan fill="#101010">The conflict — one model, three jobs, four modalities</tspan></text><rect x="57" y="566" width="1166" height="78" fill="#FFFFFF" stroke="#004282" stroke-width="2.2"/><text x="183.4" y="614.8" font-family="Calibri" font-size="28" font-weight="bold" fill="#004282" text-anchor="start" xml:space="preserve"><tspan fill="#004282">Autoregression is sequential; hybrid systems unify tasks by </tspan><tspan fill="#C00000">splitting the model</tspan><tspan fill="#004282">.</tspan></text><text x="535.92" y="699.55" font-family="Calibri" font-size="13" font-weight="bold" fill="#3C4A57" text-anchor="start" xml:space="preserve"><tspan fill="#3C4A57">Introduction and Figure 1 of the paper.</tspan></text><g transform="translate(64,146)"><rect x="0" y="0" width="350" height="286" rx="8" ry="8" fill="#FFFFFF" stroke="#C9D6E4" stroke-width="1.4"/><text x="16" y="26" font-family="Calibri" font-size="17" font-weight="bold" fill="#004282" text-anchor="start" xml:space="preserve">Autoregressive</text><rect x="28" y="76" width="24" height="24" rx="3" ry="3" fill="#9EC0E0" stroke="#FFFFFF" stroke-width="1"/><rect x="57" y="76" width="24" height="24" rx="3" ry="3" fill="#9EC0E0" stroke="#FFFFFF" stroke-width="1"/><rect x="86" y="76" width="24" height="24" rx="3" ry="3" fill="#9EC0E0" stroke="#FFFFFF" stroke-width="1"/><rect x="115" y="76" width="24" height="24" rx="3" ry="3" fill="#9EC0E0" stroke="#FFFFFF" stroke-width="1"/><rect x="144" y="76" width="24" height="24" rx="3" ry="3" fill="#9EC0E0" stroke="#FFFFFF" stroke-width="1"/><rect x="173" y="76" width="24" height="24" rx="3" ry="3" fill="#9EC0E0" stroke="#FFFFFF" stroke-width="1"/><rect x="202" y="76" width="24" height="24" rx="3" ry="3" fill="#9EC0E0" stroke="#FFFFFF" stroke-width="1"/><rect x="231" y="76" width="24" height="24" rx="3" ry="3" fill="#9EC0E0" stroke="#FFFFFF" stroke-width="1"/><path d="M 51 88 L 73 88" stroke="#004282" stroke-width="1.6" fill="none" stroke-linecap="round" marker-end="url(#arw-navy)"/><path d="M 80 88 L 102 88" stroke="#004282" stroke-width="1.6" fill="none" stroke-linecap="round" marker-end="url(#arw-navy)"/><path d="M 109 88 L 131 88" stroke="#004282" stroke-width="1.6" fill="none" stroke-linecap="round" marker-end="url(#arw-navy)"/><path d="M 138 88 L 160 88" stroke="#004282" stroke-width="1.6" fill="none" stroke-linecap="round" marker-end="url(#arw-navy)"/><path d="M 167 88 L 189 88" stroke="#004282" stroke-width="1.6" fill="none" stroke-linecap="round" marker-end="url(#arw-navy)"/><path d="M 196 88 L 218 88" stroke="#004282" stroke-width="1.6" fill="none" stroke-linecap="round" marker-end="url(#arw-navy)"/><path d="M 225 88 L 247 88" stroke="#004282" stroke-width="1.6" fill="none" stroke-linecap="round" marker-end="url(#arw-navy)"/><text x="175" y="132" font-family="Calibri" font-size="14" font-weight="bold" fill="#004282" text-anchor="middle" xml:space="preserve">left → right, one token at a time</text><rect x="24" y="154" width="302" height="58" rx="8" ry="8" fill="#FBE4E4" stroke="#C00000" stroke-width="1.5"/><text x="40" y="182" font-family="Calibri" font-size="16" font-weight="bold" fill="#C00000" text-anchor="start" xml:space="preserve">Understanding</text><text x="40" y="208" font-family="Calibri" font-size="13.5" fill="#101010" text-anchor="start" xml:space="preserve">needs bidirectional evidence</text><rect x="24" y="222" width="302" height="58" rx="8" ry="8" fill="#FBEFD9" stroke="#E8A33D" stroke-width="1.5"/><text x="40" y="250" font-family="Calibri" font-size="16" font-weight="bold" fill="#E8A33D" text-anchor="start" xml:space="preserve">Generation</text><text x="40" y="276" font-family="Calibri" font-size="13.5" fill="#101010" text-anchor="start" xml:space="preserve">needs flexible refinement</text><rect x="374" y="0" width="350" height="286" rx="8" ry="8" fill="#FFFFFF" stroke="#C9D6E4" stroke-width="1.4"/><text x="390" y="26" font-family="Calibri" font-size="17" font-weight="bold" fill="#004282" text-anchor="start" xml:space="preserve">Hybrid / decoupled</text><rect x="402" y="60" width="112" height="44" rx="6" ry="6" fill="#DCE8F5" stroke="#004282" stroke-width="1.4"/><text x="458" y="88" font-family="Calibri" font-size="13.5" font-weight="bold" fill="#004282" text-anchor="middle" xml:space="preserve">understand</text><path d="M 522 82 L 566 82" stroke="#6E7B8B" stroke-width="1.8" fill="none" stroke-linecap="round" marker-end="url(#arw-grey)"/><rect x="578" y="60" width="118" height="44" rx="6" ry="6" fill="#F0F3F7" stroke="#6E7B8B" stroke-width="1.3"/><text x="637" y="88" font-family="Calibri" font-size="13" font-weight="bold" fill="#6E7B8B" text-anchor="middle" xml:space="preserve">own module</text><rect x="402" y="126" width="112" height="44" rx="6" ry="6" fill="#FBEFD9" stroke="#E8A33D" stroke-width="1.4"/><text x="458" y="154" font-family="Calibri" font-size="13.5" font-weight="bold" fill="#E8A33D" text-anchor="middle" xml:space="preserve">generate</text><path d="M 522 148 L 566 148" stroke="#6E7B8B" stroke-width="1.8" fill="none" stroke-linecap="round" marker-end="url(#arw-grey)"/><rect x="578" y="126" width="118" height="44" rx="6" ry="6" fill="#F0F3F7" stroke="#6E7B8B" stroke-width="1.3"/><text x="637" y="154" font-family="Calibri" font-size="13" font-weight="bold" fill="#6E7B8B" text-anchor="middle" xml:space="preserve">own module</text><rect x="402" y="192" width="112" height="44" rx="6" ry="6" fill="#EEE8F6" stroke="#7651A8" stroke-width="1.4"/><text x="458" y="220" font-family="Calibri" font-size="13.5" font-weight="bold" fill="#7651A8" text-anchor="middle" xml:space="preserve">retrieve</text><path d="M 522 214 L 566 214" stroke="#6E7B8B" stroke-width="1.8" fill="none" stroke-linecap="round" marker-end="url(#arw-grey)"/><rect x="578" y="192" width="118" height="44" rx="6" ry="6" fill="#F0F3F7" stroke="#6E7B8B" stroke-width="1.3"/><text x="637" y="220" font-family="Calibri" font-size="13" font-weight="bold" fill="#6E7B8B" text-anchor="middle" xml:space="preserve">own module</text><text x="549" y="274" font-family="Calibri" font-size="13.5" font-weight="bold" fill="#C00000" text-anchor="middle" xml:space="preserve">more parameters · slower · separated features</text><rect x="748" y="0" width="404" height="286" rx="8" ry="8" fill="#FFFFFF" stroke="#C9D6E4" stroke-width="1.4"/><text x="764" y="26" font-family="Calibri" font-size="17" font-weight="bold" fill="#004282" text-anchor="start" xml:space="preserve">What an omni model must unify</text><circle cx="804" cy="104" r="30" fill="#DCE8F5" stroke="#004282" stroke-width="1.8"/><text x="804" y="112" font-family="Calibri" font-size="24" font-weight="bold" fill="#004282" text-anchor="middle" xml:space="preserve">T</text><text x="804" y="156" font-family="Calibri" font-size="13" font-weight="bold" fill="#004282" text-anchor="middle" xml:space="preserve">TEXT</text><circle cx="898" cy="104" r="30" fill="#EEE8F6" stroke="#7651A8" stroke-width="1.8"/><text x="898" y="112" font-family="Calibri" font-size="24" font-weight="bold" fill="#7651A8" text-anchor="middle" xml:space="preserve">V</text><text x="898" y="156" font-family="Calibri" font-size="13" font-weight="bold" fill="#7651A8" text-anchor="middle" xml:space="preserve">IMAGE</text><circle cx="992" cy="104" r="30" fill="#DDF2F6" stroke="#1889A6" stroke-width="1.8"/><text x="992" y="112" font-family="Calibri" font-size="24" font-weight="bold" fill="#1889A6" text-anchor="middle" xml:space="preserve">▶</text><text x="992" y="156" font-family="Calibri" font-size="13" font-weight="bold" fill="#1889A6" text-anchor="middle" xml:space="preserve">VIDEO</text><circle cx="1086" cy="104" r="30" fill="#FBEFD9" stroke="#E8A33D" stroke-width="1.8"/><text x="1086" y="112" font-family="Calibri" font-size="24" font-weight="bold" fill="#E8A33D" text-anchor="middle" xml:space="preserve">∿</text><text x="1086" y="156" font-family="Calibri" font-size="13" font-weight="bold" fill="#E8A33D" text-anchor="middle" xml:space="preserve">AUDIO</text><rect x="776" y="188" width="108" height="34" rx="17" ry="17" fill="#DCE8F5" stroke="#004282" stroke-width="1.4"/><text x="830" y="210" font-family="Calibri" font-size="12.5" font-weight="bold" fill="#004282" text-anchor="middle" xml:space="preserve">UNDERSTAND</text><rect x="898" y="188" width="108" height="34" rx="17" ry="17" fill="#FBEFD9" stroke="#E8A33D" stroke-width="1.4"/><text x="952" y="210" font-family="Calibri" font-size="12.5" font-weight="bold" fill="#E8A33D" text-anchor="middle" xml:space="preserve">GENERATE</text><rect x="1020" y="188" width="108" height="34" rx="17" ry="17" fill="#EEE8F6" stroke="#7651A8" stroke-width="1.4"/><text x="1074" y="210" font-family="Calibri" font-size="12.5" font-weight="bold" fill="#7651A8" text-anchor="middle" xml:space="preserve">RETRIEVE</text><rect x="782" y="246" width="336" height="42" rx="7" ry="7" fill="#DFF0E4" stroke="#1E7A46" stroke-width="1.5"/><text x="950" y="273" font-family="Calibri" font-size="14" font-weight="bold" fill="#1E7A46" text-anchor="middle" xml:space="preserve">one representation · any input → any output</text><rect x="0" y="306" width="1152" height="76" rx="8" ry="8" fill="#004282" stroke="#004282" stroke-width="1.5"/><text x="576" y="338" font-family="Calibri" font-size="14" font-weight="bold" fill="#9FC0DE" text-anchor="middle" xml:space="preserve">Design target</text><text x="576" y="365" font-family="Calibri" font-size="19" font-weight="bold" fill="#FFFFFF" text-anchor="middle" xml:space="preserve">Fuse the modalities deeply without splitting understanding from generation</text></g></svg>