<svg xmlns="http://www.w3.org/2000/svg" xmlns:xlink="http://www.w3.org/1999/xlink" width="1152" height="410" viewBox="0 0 1152 410"><defs><marker id="arw-navy" viewBox="0 0 10 10" refX="8.5" refY="5" markerWidth="6" markerHeight="6" orient="auto-start-reverse"><path d="M 0 1 L 9 5 L 0 9 z" fill="#004282"/></marker></defs><rect x="0" y="0" width="476" height="300" rx="8" ry="8" fill="#FFFFFF" stroke="#C9D6E4" stroke-width="1.4"/><text x="16" y="25" font-family="Calibri" font-size="17" font-weight="bold" fill="#004282" text-anchor="start" xml:space="preserve">1 · Sum over every monotone alignment</text><circle cx="56" cy="58" r="4.2" fill="#FFFFFF" stroke="#B7C5D4" stroke-width="1.2"/><line x1="56" y1="58" x2="109" y2="58" stroke="#E3E9EF" stroke-width="1" stroke-linecap="round"/><line x1="56" y1="58" x2="109" y2="103" stroke="#E3E9EF" stroke-width="1" stroke-linecap="round"/><circle cx="109" cy="58" r="4.2" fill="#FFFFFF" stroke="#B7C5D4" stroke-width="1.2"/><line x1="109" y1="58" x2="162" y2="58" stroke="#E3E9EF" stroke-width="1" stroke-linecap="round"/><line x1="109" y1="58" x2="162" y2="103" stroke="#E3E9EF" stroke-width="1" stroke-linecap="round"/><circle cx="162" cy="58" r="4.2" fill="#FFFFFF" stroke="#B7C5D4" stroke-width="1.2"/><line x1="162" y1="58" x2="215" y2="58" stroke="#E3E9EF" stroke-width="1" stroke-linecap="round"/><line x1="162" y1="58" x2="215" y2="103" stroke="#E3E9EF" stroke-width="1" stroke-linecap="round"/><circle cx="215" cy="58" r="4.2" fill="#FFFFFF" stroke="#B7C5D4" stroke-width="1.2"/><line x1="215" y1="58" x2="268" y2="58" stroke="#E3E9EF" stroke-width="1" stroke-linecap="round"/><line x1="215" y1="58" x2="268" y2="103" stroke="#E3E9EF" stroke-width="1" stroke-linecap="round"/><circle cx="268" cy="58" r="4.2" fill="#FFFFFF" stroke="#B7C5D4" stroke-width="1.2"/><line x1="268" y1="58" x2="321" y2="58" stroke="#E3E9EF" stroke-width="1" stroke-linecap="round"/><line x1="268" y1="58" x2="321" y2="103" stroke="#E3E9EF" stroke-width="1" stroke-linecap="round"/><circle cx="321" cy="58" r="4.2" fill="#FFFFFF" stroke="#B7C5D4" stroke-width="1.2"/><line x1="321" y1="58" x2="374" y2="58" stroke="#E3E9EF" stroke-width="1" stroke-linecap="round"/><line x1="321" y1="58" x2="374" y2="103" stroke="#E3E9EF" stroke-width="1" stroke-linecap="round"/><circle cx="374" cy="58" r="4.2" fill="#FFFFFF" stroke="#B7C5D4" stroke-width="1.2"/><line x1="374" y1="58" x2="427" y2="58" stroke="#E3E9EF" stroke-width="1" stroke-linecap="round"/><line x1="374" y1="58" x2="427" y2="103" stroke="#E3E9EF" stroke-width="1" stroke-linecap="round"/><circle cx="427" cy="58" r="4.2" fill="#FFFFFF" stroke="#B7C5D4" stroke-width="1.2"/><circle cx="56" cy="103" r="4.2" fill="#FFFFFF" stroke="#B7C5D4" stroke-width="1.2"/><line x1="56" y1="103" x2="109" y2="103" stroke="#E3E9EF" stroke-width="1" stroke-linecap="round"/><line x1="56" y1="103" x2="109" y2="148" stroke="#E3E9EF" stroke-width="1" stroke-linecap="round"/><circle cx="109" cy="103" r="4.2" fill="#FFFFFF" stroke="#B7C5D4" stroke-width="1.2"/><line x1="109" y1="103" x2="162" y2="103" stroke="#E3E9EF" stroke-width="1" stroke-linecap="round"/><line x1="109" y1="103" x2="162" y2="148" stroke="#E3E9EF" stroke-width="1" stroke-linecap="round"/><circle cx="162" cy="103" r="4.2" fill="#FFFFFF" stroke="#B7C5D4" stroke-width="1.2"/><line x1="162" y1="103" x2="215" y2="103" stroke="#E3E9EF" stroke-width="1" stroke-linecap="round"/><line x1="162" y1="103" x2="215" y2="148" stroke="#E3E9EF" stroke-width="1" stroke-linecap="round"/><circle cx="215" cy="103" r="4.2" fill="#FFFFFF" stroke="#B7C5D4" stroke-width="1.2"/><line x1="215" y1="103" x2="268" y2="103" stroke="#E3E9EF" stroke-width="1" stroke-linecap="round"/><line x1="215" y1="103" x2="268" y2="148" stroke="#E3E9EF" stroke-width="1" stroke-linecap="round"/><circle cx="268" cy="103" r="4.2" fill="#FFFFFF" stroke="#B7C5D4" stroke-width="1.2"/><line x1="268" y1="103" x2="321" y2="103" stroke="#E3E9EF" stroke-width="1" stroke-linecap="round"/><line x1="268" y1="103" x2="321" y2="148" stroke="#E3E9EF" stroke-width="1" stroke-linecap="round"/><circle cx="321" cy="103" r="4.2" fill="#FFFFFF" stroke="#B7C5D4" stroke-width="1.2"/><line x1="321" y1="103" x2="374" y2="103" stroke="#E3E9EF" stroke-width="1" stroke-linecap="round"/><line x1="321" y1="103" x2="374" y2="148" stroke="#E3E9EF" stroke-width="1" stroke-linecap="round"/><circle cx="374" cy="103" r="4.2" fill="#FFFFFF" stroke="#B7C5D4" stroke-width="1.2"/><line x1="374" y1="103" x2="427" y2="103" stroke="#E3E9EF" stroke-width="1" stroke-linecap="round"/><line x1="374" y1="103" x2="427" y2="148" stroke="#E3E9EF" stroke-width="1" stroke-linecap="round"/><circle cx="427" cy="103" r="4.2" fill="#FFFFFF" stroke="#B7C5D4" stroke-width="1.2"/><circle cx="56" cy="148" r="4.2" fill="#FFFFFF" stroke="#B7C5D4" stroke-width="1.2"/><line x1="56" y1="148" x2="109" y2="148" stroke="#E3E9EF" stroke-width="1" stroke-linecap="round"/><line x1="56" y1="148" x2="109" y2="193" stroke="#E3E9EF" stroke-width="1" stroke-linecap="round"/><circle cx="109" cy="148" r="4.2" fill="#FFFFFF" stroke="#B7C5D4" stroke-width="1.2"/><line x1="109" y1="148" x2="162" y2="148" stroke="#E3E9EF" stroke-width="1" stroke-linecap="round"/><line x1="109" y1="148" x2="162" y2="193" stroke="#E3E9EF" stroke-width="1" stroke-linecap="round"/><circle cx="162" cy="148" r="4.2" fill="#FFFFFF" stroke="#B7C5D4" stroke-width="1.2"/><line x1="162" y1="148" x2="215" y2="148" stroke="#E3E9EF" stroke-width="1" stroke-linecap="round"/><line x1="162" y1="148" x2="215" y2="193" stroke="#E3E9EF" stroke-width="1" stroke-linecap="round"/><circle cx="215" cy="148" r="4.2" fill="#FFFFFF" stroke="#B7C5D4" stroke-width="1.2"/><line x1="215" y1="148" x2="268" y2="148" stroke="#E3E9EF" stroke-width="1" stroke-linecap="round"/><line x1="215" y1="148" x2="268" y2="193" stroke="#E3E9EF" stroke-width="1" stroke-linecap="round"/><circle cx="268" cy="148" r="4.2" fill="#FFFFFF" stroke="#B7C5D4" stroke-width="1.2"/><line x1="268" y1="148" x2="321" y2="148" stroke="#E3E9EF" stroke-width="1" stroke-linecap="round"/><line x1="268" y1="148" x2="321" y2="193" stroke="#E3E9EF" stroke-width="1" stroke-linecap="round"/><circle cx="321" cy="148" r="4.2" fill="#FFFFFF" stroke="#B7C5D4" stroke-width="1.2"/><line x1="321" y1="148" x2="374" y2="148" stroke="#E3E9EF" stroke-width="1" stroke-linecap="round"/><line x1="321" y1="148" x2="374" y2="193" stroke="#E3E9EF" stroke-width="1" stroke-linecap="round"/><circle cx="374" cy="148" r="4.2" fill="#FFFFFF" stroke="#B7C5D4" stroke-width="1.2"/><line x1="374" y1="148" x2="427" y2="148" stroke="#E3E9EF" stroke-width="1" stroke-linecap="round"/><line x1="374" y1="148" x2="427" y2="193" stroke="#E3E9EF" stroke-width="1" stroke-linecap="round"/><circle cx="427" cy="148" r="4.2" fill="#FFFFFF" stroke="#B7C5D4" stroke-width="1.2"/><circle cx="56" cy="193" r="4.2" fill="#FFFFFF" stroke="#B7C5D4" stroke-width="1.2"/><line x1="56" y1="193" x2="109" y2="193" stroke="#E3E9EF" stroke-width="1" stroke-linecap="round"/><line x1="56" y1="193" x2="109" y2="238" stroke="#E3E9EF" stroke-width="1" stroke-linecap="round"/><circle cx="109" cy="193" r="4.2" fill="#FFFFFF" stroke="#B7C5D4" stroke-width="1.2"/><line x1="109" y1="193" x2="162" y2="193" stroke="#E3E9EF" stroke-width="1" stroke-linecap="round"/><line x1="109" y1="193" x2="162" y2="238" stroke="#E3E9EF" stroke-width="1" stroke-linecap="round"/><circle cx="162" cy="193" r="4.2" fill="#FFFFFF" stroke="#B7C5D4" stroke-width="1.2"/><line x1="162" y1="193" x2="215" y2="193" stroke="#E3E9EF" stroke-width="1" stroke-linecap="round"/><line x1="162" y1="193" x2="215" y2="238" stroke="#E3E9EF" stroke-width="1" stroke-linecap="round"/><circle cx="215" cy="193" r="4.2" fill="#FFFFFF" stroke="#B7C5D4" stroke-width="1.2"/><line x1="215" y1="193" x2="268" y2="193" stroke="#E3E9EF" stroke-width="1" stroke-linecap="round"/><line x1="215" y1="193" x2="268" y2="238" stroke="#E3E9EF" stroke-width="1" stroke-linecap="round"/><circle cx="268" cy="193" r="4.2" fill="#FFFFFF" stroke="#B7C5D4" stroke-width="1.2"/><line x1="268" y1="193" x2="321" y2="193" stroke="#E3E9EF" stroke-width="1" stroke-linecap="round"/><line x1="268" y1="193" x2="321" y2="238" stroke="#E3E9EF" stroke-width="1" stroke-linecap="round"/><circle cx="321" cy="193" r="4.2" fill="#FFFFFF" stroke="#B7C5D4" stroke-width="1.2"/><line x1="321" y1="193" x2="374" y2="193" stroke="#E3E9EF" stroke-width="1" stroke-linecap="round"/><line x1="321" y1="193" x2="374" y2="238" stroke="#E3E9EF" stroke-width="1" stroke-linecap="round"/><circle cx="374" cy="193" r="4.2" fill="#FFFFFF" stroke="#B7C5D4" stroke-width="1.2"/><line x1="374" y1="193" x2="427" y2="193" stroke="#E3E9EF" stroke-width="1" stroke-linecap="round"/><line x1="374" y1="193" x2="427" y2="238" stroke="#E3E9EF" stroke-width="1" stroke-linecap="round"/><circle cx="427" cy="193" r="4.2" fill="#FFFFFF" stroke="#B7C5D4" stroke-width="1.2"/><circle cx="56" cy="238" r="4.2" fill="#FFFFFF" stroke="#B7C5D4" stroke-width="1.2"/><line x1="56" y1="238" x2="109" y2="238" stroke="#E3E9EF" stroke-width="1" stroke-linecap="round"/><circle cx="109" cy="238" r="4.2" fill="#FFFFFF" stroke="#B7C5D4" stroke-width="1.2"/><line x1="109" y1="238" x2="162" y2="238" stroke="#E3E9EF" stroke-width="1" stroke-linecap="round"/><circle cx="162" cy="238" r="4.2" fill="#FFFFFF" stroke="#B7C5D4" stroke-width="1.2"/><line x1="162" y1="238" x2="215" y2="238" stroke="#E3E9EF" stroke-width="1" stroke-linecap="round"/><circle cx="215" cy="238" r="4.2" fill="#FFFFFF" stroke="#B7C5D4" stroke-width="1.2"/><line x1="215" y1="238" x2="268" y2="238" stroke="#E3E9EF" stroke-width="1" stroke-linecap="round"/><circle cx="268" cy="238" r="4.2" fill="#FFFFFF" stroke="#B7C5D4" stroke-width="1.2"/><line x1="268" y1="238" x2="321" y2="238" stroke="#E3E9EF" stroke-width="1" stroke-linecap="round"/><circle cx="321" cy="238" r="4.2" fill="#FFFFFF" stroke="#B7C5D4" stroke-width="1.2"/><line x1="321" y1="238" x2="374" y2="238" stroke="#E3E9EF" stroke-width="1" stroke-linecap="round"/><circle cx="374" cy="238" r="4.2" fill="#FFFFFF" stroke="#B7C5D4" stroke-width="1.2"/><line x1="374" y1="238" x2="427" y2="238" stroke="#E3E9EF" stroke-width="1" stroke-linecap="round"/><circle cx="427" cy="238" r="4.2" fill="#FFFFFF" stroke="#B7C5D4" stroke-width="1.2"/><path d="M 56 58 L 109 58 L 162 103 L 215 103 L 268 148 L 321 193 L 374 193 L 427 238" stroke="#C00000" stroke-width="3" fill="none" stroke-linecap="round"/><circle cx="56" cy="58" r="5.2" fill="#C00000" stroke="#FFFFFF" stroke-width="1.2"/><circle cx="109" cy="58" r="5.2" fill="#C00000" stroke="#FFFFFF" stroke-width="1.2"/><circle cx="162" cy="103" r="5.2" fill="#C00000" stroke="#FFFFFF" stroke-width="1.2"/><circle cx="215" cy="103" r="5.2" fill="#C00000" stroke="#FFFFFF" stroke-width="1.2"/><circle cx="268" cy="148" r="5.2" fill="#C00000" stroke="#FFFFFF" stroke-width="1.2"/><circle cx="321" cy="193" r="5.2" fill="#C00000" stroke="#FFFFFF" stroke-width="1.2"/><circle cx="374" cy="193" r="5.2" fill="#C00000" stroke="#FFFFFF" stroke-width="1.2"/><circle cx="427" cy="238" r="5.2" fill="#C00000" stroke="#FFFFFF" stroke-width="1.2"/><text x="238" y="266" font-family="Calibri" font-size="14" font-weight="bold" fill="#C00000" text-anchor="middle" xml:space="preserve">one path shown · all paths contribute</text><rect x="46" y="286" width="384" height="32" rx="6" ry="6" fill="#DFF0E4" stroke="#1E7A46" stroke-width="1.4"/><text x="238" y="308" font-family="Calibri" font-size="14" font-weight="bold" fill="#1E7A46" text-anchor="middle" xml:space="preserve">2ᴹ enumeration  →  dynamic programming M²</text><rect x="500" y="0" width="300" height="300" rx="8" ry="8" fill="#FFFFFF" stroke="#C9D6E4" stroke-width="1.4"/><text x="516" y="25" font-family="Calibri" font-size="17" font-weight="bold" fill="#004282" text-anchor="start" xml:space="preserve">2 · Learn the cut</text><text x="524" y="92" font-family="Calibri" font-size="28" font-style="italic" fill="#101010" text-anchor="start" xml:space="preserve">∂L/∂a = p − γ/Z</text><text x="524" y="126" font-family="Calibri" font-size="13" font-weight="bold" fill="#004282" text-anchor="start" xml:space="preserve">prediction</text><text x="648" y="126" font-family="Calibri" font-size="13" font-weight="bold" fill="#C00000" text-anchor="start" xml:space="preserve">posterior</text><rect x="524" y="229.6" width="22" height="18.4" rx="2" ry="2" fill="#9EC0E0" stroke="#004282" stroke-width="1.1"/><text x="535" y="268" font-family="Calibri" font-size="11.5" fill="#6E7B8B" text-anchor="middle" xml:space="preserve">1</text><rect x="555" y="211.2" width="22" height="36.8" rx="2" ry="2" fill="#9EC0E0" stroke="#004282" stroke-width="1.1"/><text x="566" y="268" font-family="Calibri" font-size="11.5" fill="#6E7B8B" text-anchor="middle" xml:space="preserve">2</text><rect x="586" y="174.4" width="22" height="73.6" rx="2" ry="2" fill="#9EC0E0" stroke="#004282" stroke-width="1.1"/><text x="597" y="268" font-family="Calibri" font-size="11.5" fill="#6E7B8B" text-anchor="middle" xml:space="preserve">3</text><rect x="617" y="183.6" width="22" height="64.4" rx="2" ry="2" fill="#9EC0E0" stroke="#004282" stroke-width="1.1"/><text x="628" y="268" font-family="Calibri" font-size="11.5" fill="#6E7B8B" text-anchor="middle" xml:space="preserve">4</text><rect x="648" y="220.4" width="22" height="27.6" rx="2" ry="2" fill="#9EC0E0" stroke="#004282" stroke-width="1.1"/><text x="659" y="268" font-family="Calibri" font-size="11.5" fill="#6E7B8B" text-anchor="middle" xml:space="preserve">5</text><rect x="679" y="238.8" width="22" height="9.2" rx="2" ry="2" fill="#9EC0E0" stroke="#004282" stroke-width="1.1"/><text x="690" y="268" font-family="Calibri" font-size="11.5" fill="#6E7B8B" text-anchor="middle" xml:space="preserve">6</text><rect x="710" y="165.2" width="22" height="82.8" rx="2" ry="2" fill="#9EC0E0" stroke="#004282" stroke-width="1.1"/><text x="721" y="268" font-family="Calibri" font-size="11.5" fill="#6E7B8B" text-anchor="middle" xml:space="preserve">7</text><rect x="741" y="183.6" width="22" height="64.4" rx="2" ry="2" fill="#9EC0E0" stroke="#004282" stroke-width="1.1"/><text x="752" y="268" font-family="Calibri" font-size="11.5" fill="#6E7B8B" text-anchor="middle" xml:space="preserve">8</text><line x1="520" y1="249" x2="778" y2="249" stroke="#6E7B8B" stroke-width="1.2" stroke-linecap="round"/><text x="650" y="296" font-family="Calibri" font-size="13.5" font-weight="bold" fill="#004282" text-anchor="middle" xml:space="preserve">posterior residual · CTC-shaped gradient</text><rect x="824" y="0" width="328" height="300" rx="8" ry="8" fill="#FFFFFF" stroke="#C9D6E4" stroke-width="1.4"/><text x="840" y="25" font-family="Calibri" font-size="17" font-weight="bold" fill="#004282" text-anchor="start" xml:space="preserve">3 · Merge kept runs</text><rect x="850" y="72" width="34" height="34" rx="4" ry="4" fill="#FFFFFF" stroke="#6E7B8B" stroke-width="1.3"/><text x="867" y="93.55" font-family="Calibri" font-size="13" font-weight="bold" fill="#004282" text-anchor="middle" xml:space="preserve">ø</text><rect x="894" y="72" width="34" height="34" rx="4" ry="4" fill="#9EC0E0" stroke="#004282" stroke-width="1.3"/><text x="911" y="93.55" font-family="Calibri" font-size="13" font-weight="bold" fill="#004282" text-anchor="middle" xml:space="preserve">•</text><rect x="938" y="72" width="34" height="34" rx="4" ry="4" fill="#9EC0E0" stroke="#004282" stroke-width="1.3"/><text x="955" y="93.55" font-family="Calibri" font-size="13" font-weight="bold" fill="#004282" text-anchor="middle" xml:space="preserve">•</text><rect x="982" y="72" width="34" height="34" rx="4" ry="4" fill="#FFFFFF" stroke="#6E7B8B" stroke-width="1.3"/><text x="999" y="93.55" font-family="Calibri" font-size="13" font-weight="bold" fill="#004282" text-anchor="middle" xml:space="preserve">ø</text><rect x="1026" y="72" width="34" height="34" rx="4" ry="4" fill="#9EC0E0" stroke="#004282" stroke-width="1.3"/><text x="1043" y="93.55" font-family="Calibri" font-size="13" font-weight="bold" fill="#004282" text-anchor="middle" xml:space="preserve">•</text><rect x="1070" y="72" width="34" height="34" rx="4" ry="4" fill="#9EC0E0" stroke="#004282" stroke-width="1.3"/><text x="1087" y="93.55" font-family="Calibri" font-size="13" font-weight="bold" fill="#004282" text-anchor="middle" xml:space="preserve">•</text><path d="M 986 126 L 986 162" stroke="#004282" stroke-width="2.4" fill="none" stroke-linecap="round" marker-end="url(#arw-navy)"/><rect x="858" y="172" width="112" height="52" rx="7" ry="7" fill="#FBEFD9" stroke="#E8A33D" stroke-width="1.5"/><rect x="1000" y="172" width="112" height="52" rx="7" ry="7" fill="#FBEFD9" stroke="#E8A33D" stroke-width="1.5"/><text x="914" y="204" font-family="Calibri" font-size="15" font-weight="bold" fill="#E8A33D" text-anchor="middle" xml:space="preserve">concept 1</text><text x="1056" y="204" font-family="Calibri" font-size="15" font-weight="bold" fill="#E8A33D" text-anchor="middle" xml:space="preserve">concept 2</text><text x="986" y="258" font-family="Calibri" font-size="14" font-weight="bold" fill="#101010" text-anchor="middle" xml:space="preserve">score-weighted average</text><rect x="870" y="276" width="232" height="36" rx="6" ry="6" fill="#DFF0E4" stroke="#1E7A46" stroke-width="1.5"/><text x="986" y="300" font-family="Calibri" font-size="14" font-weight="bold" fill="#1E7A46" text-anchor="middle" xml:space="preserve">parallel implementation · 100×</text><rect x="0" y="318" width="1152" height="64" rx="8" ry="8" fill="#004282" stroke="#004282" stroke-width="1.5"/><text x="576" y="358" font-family="Calibri" font-size="19" font-weight="bold" fill="#FFFFFF" text-anchor="middle" xml:space="preserve">Unknown boundaries are marginalized during training — not guessed in advance</text></svg>