<svg xmlns="http://www.w3.org/2000/svg" xmlns:xlink="http://www.w3.org/1999/xlink" width="1280" height="720" viewBox="0 0 1280 720"><defs><marker id="arw-navy" viewBox="0 0 10 10" refX="8.5" refY="5" markerWidth="6" markerHeight="6" orient="auto-start-reverse"><path d="M 0 1 L 9 5 L 0 9 z" fill="#004282"/></marker></defs><rect x="0" y="0" width="1280" height="720" fill="#FFFFFF"/><text x="64" y="107" font-family="Calibri" font-size="40" font-weight="bold" fill="#101010" text-anchor="start" xml:space="preserve"><tspan fill="#101010">Deployment — stream actions while the model is still decoding</tspan></text><rect x="57" y="566" width="1166" height="78" fill="#FFFFFF" stroke="#004282" stroke-width="2.2"/><text x="153.13" y="614.8" font-family="Calibri" font-size="28" font-weight="bold" fill="#004282" text-anchor="start" xml:space="preserve"><tspan fill="#004282">Streaming-vLLM overlaps generation with execution and reuses the moving context.</tspan></text><text x="559.91" y="699.55" font-family="Calibri" font-size="13" font-weight="bold" fill="#3C4A57" text-anchor="start" xml:space="preserve"><tspan fill="#3C4A57">Sections 5.1–5.7 and Figure 3.</tspan></text><g transform="translate(64,146)"><text x="0" y="18" font-family="Calibri" font-size="16" font-weight="bold" fill="#101010" text-anchor="start" xml:space="preserve">Streaming action generation</text><rect x="18" y="48" width="122" height="82" rx="4" ry="4" fill="#EAF0F5" stroke="#6E7B8B" stroke-width="1.2"/><circle cx="48.5" cy="70.96" r="7.38" fill="#FBEFD9" stroke="#E8A33D" stroke-width="0.9"/><polygon points="23,124 61.92,85.72 86.32,124" fill="#9EC0E0" stroke="#004282" stroke-width="0.9"/><polygon points="69.24,124 105.84,72.6 135,124" fill="#EEE8F6" stroke="#7651A8" stroke-width="0.9"/><rect x="18" y="124" width="122" height="6" fill="#004282"/><text x="79" y="154" font-family="Calibri" font-size="13" font-weight="bold" fill="#004282" text-anchor="middle" xml:space="preserve">game client</text><path d="M 150 90 L 218 90" stroke="#004282" stroke-width="2" fill="none" stroke-linecap="round" marker-end="url(#arw-navy)"/><rect x="232" y="46" width="302" height="88" rx="7" ry="7" fill="#DCE8F5" stroke="#004282" stroke-width="1.5"/><text x="383" y="77" font-family="Calibri" font-size="18" font-weight="bold" fill="#004282" text-anchor="middle" xml:space="preserve">Streaming-vLLM</text><text x="383" y="105" font-family="Calibri" font-size="13.5" font-weight="bold" fill="#101010" text-anchor="middle" xml:space="preserve">decode K1 → execute K1 → decode K2 …</text><rect x="572" y="54" width="68" height="32" rx="4" ry="4" fill="#DCE8F5" stroke="#004282" stroke-width="1"/><text x="606" y="75" font-family="Calibri" font-size="12.5" font-weight="bold" fill="#004282" text-anchor="middle" xml:space="preserve">K1</text><rect x="572" y="102" width="68" height="24" rx="3" ry="3" fill="#DFF0E4" stroke="#1E7A46" stroke-width="0.8"/><text x="606" y="119" font-family="Calibri" font-size="10.5" font-weight="bold" fill="#1E7A46" text-anchor="middle" xml:space="preserve">run</text><rect x="658" y="54" width="68" height="32" rx="4" ry="4" fill="#DCE8F5" stroke="#004282" stroke-width="1"/><text x="692" y="75" font-family="Calibri" font-size="12.5" font-weight="bold" fill="#004282" text-anchor="middle" xml:space="preserve">K2</text><rect x="658" y="102" width="68" height="24" rx="3" ry="3" fill="#DFF0E4" stroke="#1E7A46" stroke-width="0.8"/><text x="692" y="119" font-family="Calibri" font-size="10.5" font-weight="bold" fill="#1E7A46" text-anchor="middle" xml:space="preserve">run</text><rect x="744" y="54" width="68" height="32" rx="4" ry="4" fill="#DCE8F5" stroke="#004282" stroke-width="1"/><text x="778" y="75" font-family="Calibri" font-size="12.5" font-weight="bold" fill="#004282" text-anchor="middle" xml:space="preserve">K3</text><rect x="744" y="102" width="68" height="24" rx="3" ry="3" fill="#F0F3F7" stroke="#6E7B8B" stroke-width="0.8"/><text x="778" y="119" font-family="Calibri" font-size="10.5" font-weight="bold" fill="#6E7B8B" text-anchor="middle" xml:space="preserve">wait</text><rect x="830" y="54" width="68" height="32" rx="4" ry="4" fill="#FFFFFF" stroke="#004282" stroke-width="1"/><text x="864" y="75" font-family="Calibri" font-size="12.5" font-weight="bold" fill="#004282" text-anchor="middle" xml:space="preserve">K4</text><rect x="830" y="102" width="68" height="24" rx="3" ry="3" fill="#F0F3F7" stroke="#6E7B8B" stroke-width="0.8"/><text x="864" y="119" font-family="Calibri" font-size="10.5" font-weight="bold" fill="#6E7B8B" text-anchor="middle" xml:space="preserve">wait</text><rect x="916" y="54" width="68" height="32" rx="4" ry="4" fill="#FFFFFF" stroke="#004282" stroke-width="1"/><text x="950" y="75" font-family="Calibri" font-size="12.5" font-weight="bold" fill="#004282" text-anchor="middle" xml:space="preserve">K5</text><rect x="916" y="102" width="68" height="24" rx="3" ry="3" fill="#F0F3F7" stroke="#6E7B8B" stroke-width="0.8"/><text x="950" y="119" font-family="Calibri" font-size="10.5" font-weight="bold" fill="#6E7B8B" text-anchor="middle" xml:space="preserve">wait</text><rect x="1002" y="54" width="68" height="32" rx="4" ry="4" fill="#FFFFFF" stroke="#004282" stroke-width="1"/><text x="1036" y="75" font-family="Calibri" font-size="12.5" font-weight="bold" fill="#004282" text-anchor="middle" xml:space="preserve">K6</text><rect x="1002" y="102" width="68" height="24" rx="3" ry="3" fill="#F0F3F7" stroke="#6E7B8B" stroke-width="0.8"/><text x="1036" y="119" font-family="Calibri" font-size="10.5" font-weight="bold" fill="#6E7B8B" text-anchor="middle" xml:space="preserve">wait</text><text x="826" y="154" font-family="Calibri" font-size="13" font-weight="bold" fill="#C00000" text-anchor="middle" xml:space="preserve">generation overlaps environment execution</text><text x="0" y="202" font-family="Calibri" font-size="16" font-weight="bold" fill="#101010" text-anchor="start" xml:space="preserve">Long context without recomputation</text><text x="26" y="238" font-family="Calibri" font-size="13.5" font-weight="bold" fill="#6E7B8B" text-anchor="start" xml:space="preserve">logical window</text><rect x="154" y="220" width="46" height="36" rx="4" ry="4" fill="#F0F3F7" stroke="#6E7B8B" stroke-width="1"/><text x="177" y="244" font-family="Calibri" font-size="12.5" font-weight="bold" fill="#6E7B8B" text-anchor="middle" xml:space="preserve">1</text><rect x="212" y="220" width="46" height="36" rx="4" ry="4" fill="#F0F3F7" stroke="#6E7B8B" stroke-width="1"/><text x="235" y="244" font-family="Calibri" font-size="12.5" font-weight="bold" fill="#6E7B8B" text-anchor="middle" xml:space="preserve">2</text><rect x="270" y="220" width="46" height="36" rx="4" ry="4" fill="#DCE8F5" stroke="#004282" stroke-width="1"/><text x="293" y="244" font-family="Calibri" font-size="12.5" font-weight="bold" fill="#004282" text-anchor="middle" xml:space="preserve">3</text><rect x="328" y="220" width="46" height="36" rx="4" ry="4" fill="#DCE8F5" stroke="#004282" stroke-width="1"/><text x="351" y="244" font-family="Calibri" font-size="12.5" font-weight="bold" fill="#004282" text-anchor="middle" xml:space="preserve">4</text><rect x="386" y="220" width="46" height="36" rx="4" ry="4" fill="#DCE8F5" stroke="#004282" stroke-width="1"/><text x="409" y="244" font-family="Calibri" font-size="12.5" font-weight="bold" fill="#004282" text-anchor="middle" xml:space="preserve">5</text><rect x="444" y="220" width="46" height="36" rx="4" ry="4" fill="#DCE8F5" stroke="#004282" stroke-width="1"/><text x="467" y="244" font-family="Calibri" font-size="12.5" font-weight="bold" fill="#004282" text-anchor="middle" xml:space="preserve">6</text><rect x="502" y="220" width="46" height="36" rx="4" ry="4" fill="#DCE8F5" stroke="#004282" stroke-width="1"/><text x="525" y="244" font-family="Calibri" font-size="12.5" font-weight="bold" fill="#004282" text-anchor="middle" xml:space="preserve">7</text><rect x="560" y="220" width="46" height="36" rx="4" ry="4" fill="#DCE8F5" stroke="#004282" stroke-width="1"/><text x="583" y="244" font-family="Calibri" font-size="12.5" font-weight="bold" fill="#004282" text-anchor="middle" xml:space="preserve">8</text><path d="M 628 238 L 704 238" stroke="#004282" stroke-width="2" fill="none" stroke-linecap="round" marker-end="url(#arw-navy)"/><text x="666" y="226" font-family="Calibri" font-size="11.5" font-weight="bold" fill="#004282" text-anchor="middle" xml:space="preserve">slide</text><rect x="720" y="220" width="40" height="36" rx="4" ry="4" fill="#DCE8F5" stroke="#004282" stroke-width="1"/><text x="740" y="244" font-family="Calibri" font-size="12.5" font-weight="bold" fill="#004282" text-anchor="middle" xml:space="preserve">3</text><rect x="770" y="220" width="40" height="36" rx="4" ry="4" fill="#DCE8F5" stroke="#004282" stroke-width="1"/><text x="790" y="244" font-family="Calibri" font-size="12.5" font-weight="bold" fill="#004282" text-anchor="middle" xml:space="preserve">4</text><rect x="820" y="220" width="40" height="36" rx="4" ry="4" fill="#DCE8F5" stroke="#004282" stroke-width="1"/><text x="840" y="244" font-family="Calibri" font-size="12.5" font-weight="bold" fill="#004282" text-anchor="middle" xml:space="preserve">5</text><rect x="870" y="220" width="40" height="36" rx="4" ry="4" fill="#DCE8F5" stroke="#004282" stroke-width="1"/><text x="890" y="244" font-family="Calibri" font-size="12.5" font-weight="bold" fill="#004282" text-anchor="middle" xml:space="preserve">6</text><rect x="920" y="220" width="40" height="36" rx="4" ry="4" fill="#DCE8F5" stroke="#004282" stroke-width="1"/><text x="940" y="244" font-family="Calibri" font-size="12.5" font-weight="bold" fill="#004282" text-anchor="middle" xml:space="preserve">7</text><rect x="970" y="220" width="40" height="36" rx="4" ry="4" fill="#DCE8F5" stroke="#004282" stroke-width="1"/><text x="990" y="244" font-family="Calibri" font-size="12.5" font-weight="bold" fill="#004282" text-anchor="middle" xml:space="preserve">8</text><rect x="1020" y="220" width="40" height="36" rx="4" ry="4" fill="#DCE8F5" stroke="#004282" stroke-width="1"/><text x="1040" y="244" font-family="Calibri" font-size="12.5" font-weight="bold" fill="#004282" text-anchor="middle" xml:space="preserve">9</text><rect x="1070" y="220" width="40" height="36" rx="4" ry="4" fill="#DCE8F5" stroke="#004282" stroke-width="1"/><text x="1090" y="244" font-family="Calibri" font-size="12.5" font-weight="bold" fill="#004282" text-anchor="middle" xml:space="preserve">10</text><text x="26" y="292" font-family="Calibri" font-size="13.5" font-weight="bold" fill="#6E7B8B" text-anchor="start" xml:space="preserve">physical KV</text><rect x="154" y="274" width="58" height="34" rx="4" ry="4" fill="#F0F3F7" stroke="#6E7B8B" stroke-width="1"/><text x="183" y="297" font-family="Calibri" font-size="11.5" font-weight="bold" fill="#6E7B8B" text-anchor="middle" xml:space="preserve">free</text><rect x="228" y="274" width="58" height="34" rx="4" ry="4" fill="#F0F3F7" stroke="#6E7B8B" stroke-width="1"/><text x="257" y="297" font-family="Calibri" font-size="11.5" font-weight="bold" fill="#6E7B8B" text-anchor="middle" xml:space="preserve">free</text><rect x="302" y="274" width="58" height="34" rx="4" ry="4" fill="#DFF0E4" stroke="#1E7A46" stroke-width="1"/><text x="331" y="297" font-family="Calibri" font-size="11.5" font-weight="bold" fill="#1E7A46" text-anchor="middle" xml:space="preserve">reuse</text><rect x="376" y="274" width="58" height="34" rx="4" ry="4" fill="#DFF0E4" stroke="#1E7A46" stroke-width="1"/><text x="405" y="297" font-family="Calibri" font-size="11.5" font-weight="bold" fill="#1E7A46" text-anchor="middle" xml:space="preserve">reuse</text><rect x="450" y="274" width="58" height="34" rx="4" ry="4" fill="#DFF0E4" stroke="#1E7A46" stroke-width="1"/><text x="479" y="297" font-family="Calibri" font-size="11.5" font-weight="bold" fill="#1E7A46" text-anchor="middle" xml:space="preserve">reuse</text><rect x="524" y="274" width="58" height="34" rx="4" ry="4" fill="#DFF0E4" stroke="#1E7A46" stroke-width="1"/><text x="553" y="297" font-family="Calibri" font-size="11.5" font-weight="bold" fill="#1E7A46" text-anchor="middle" xml:space="preserve">reuse</text><rect x="598" y="274" width="58" height="34" rx="4" ry="4" fill="#DFF0E4" stroke="#1E7A46" stroke-width="1"/><text x="627" y="297" font-family="Calibri" font-size="11.5" font-weight="bold" fill="#1E7A46" text-anchor="middle" xml:space="preserve">reuse</text><rect x="672" y="274" width="58" height="34" rx="4" ry="4" fill="#DFF0E4" stroke="#1E7A46" stroke-width="1"/><text x="701" y="297" font-family="Calibri" font-size="11.5" font-weight="bold" fill="#1E7A46" text-anchor="middle" xml:space="preserve">reuse</text><rect x="746" y="274" width="58" height="34" rx="4" ry="4" fill="#F0F3F7" stroke="#6E7B8B" stroke-width="1"/><text x="775" y="297" font-family="Calibri" font-size="11.5" font-weight="bold" fill="#6E7B8B" text-anchor="middle" xml:space="preserve">free</text><rect x="820" y="274" width="58" height="34" rx="4" ry="4" fill="#F0F3F7" stroke="#6E7B8B" stroke-width="1"/><text x="849" y="297" font-family="Calibri" font-size="11.5" font-weight="bold" fill="#6E7B8B" text-anchor="middle" xml:space="preserve">free</text><rect x="894" y="274" width="58" height="34" rx="4" ry="4" fill="#F0F3F7" stroke="#6E7B8B" stroke-width="1"/><text x="923" y="297" font-family="Calibri" font-size="11.5" font-weight="bold" fill="#6E7B8B" text-anchor="middle" xml:space="preserve">free</text><rect x="968" y="274" width="58" height="34" rx="4" ry="4" fill="#F0F3F7" stroke="#6E7B8B" stroke-width="1"/><text x="997" y="297" font-family="Calibri" font-size="11.5" font-weight="bold" fill="#6E7B8B" text-anchor="middle" xml:space="preserve">free</text><text x="576" y="330" font-family="Calibri" font-size="13.5" font-weight="bold" fill="#6E7B8B" text-anchor="middle" xml:space="preserve">block lookup · RoPE refresh · CUDA Graph · action-aware speculation</text><rect x="160" y="344" width="330" height="38" rx="5" ry="5" fill="#FFFFFF" stroke="#004282" stroke-width="1.4"/><text x="325" y="369" font-family="Calibri" font-size="16" font-weight="bold" fill="#004282" text-anchor="middle" xml:space="preserve">&gt;20× vs standard vLLM</text><rect x="662" y="344" width="330" height="38" rx="5" ry="5" fill="#FFFFFF" stroke="#1E7A46" stroke-width="1.4"/><text x="827" y="369" font-family="Calibri" font-size="16" font-weight="bold" fill="#1E7A46" text-anchor="middle" xml:space="preserve">&gt;30 Hz action prediction</text></g></svg>