<svg xmlns="http://www.w3.org/2000/svg" xmlns:xlink="http://www.w3.org/1999/xlink" width="1280" height="720" viewBox="0 0 1280 720"><rect x="0" y="0" width="1280" height="720" fill="#004282"/><text x="560.53" y="257.7" font-family="Calibri" font-size="62" font-weight="bold" fill="#FFFFFF" text-anchor="start" xml:space="preserve"><tspan fill="#FFFFFF">Hades</tspan></text><text x="67.57" y="320.85" font-family="Calibri" font-size="31" font-weight="bold" fill="#BBD3EA" text-anchor="start" xml:space="preserve"><tspan fill="#BBD3EA">A Generalist Vision-Language-Action Model for Long-Horizon Real-Time GUI Game Agents</tspan></text><rect x="430" y="374" width="420" height="2" fill="#5A8CBE"/><text x="376.26" y="424" font-family="Calibri" font-size="20" fill="#FFFFFF" text-anchor="start" xml:space="preserve"><tspan fill="#FFFFFF">miHoYo Lumi · full author list in the paper's Contributions section</tspan></text><text x="507.5" y="460.6" font-family="Calibri" font-size="16" fill="#A9C6E2" text-anchor="start" xml:space="preserve"><tspan fill="#A9C6E2">Industrial-scale generalist agent research</tspan></text><rect x="508" y="522" width="264" height="42" rx="21" ry="21" fill="none" stroke="#7FA8D2" stroke-width="1.8"/><text x="521.27" y="548.95" font-family="Calibri" font-size="17" font-weight="bold" fill="#FFFFFF" text-anchor="start" xml:space="preserve"><tspan fill="#FFFFFF">Manuscript dated 26 August 2026</tspan></text><rect x="760" y="48" width="64" height="46" rx="4" ry="4" fill="#EAF0F5" stroke="#6E7B8B" stroke-width="1.2"/><circle cx="776" cy="60.88" r="4.14" fill="#FBEFD9" stroke="#E8A33D" stroke-width="0.9"/><polygon points="765,88 783.04,69.16 795.84,88" fill="#9EC0E0" stroke="#004282" stroke-width="0.9"/><polygon points="786.88,88 806.08,61.8 819,88" fill="#EEE8F6" stroke="#7651A8" stroke-width="0.9"/><rect x="760" y="88" width="64" height="6" fill="#004282"/><path d="M 824 71 C 832 71, 834 95, 840 95" stroke="#FFFFFF" stroke-width="1.5" fill="none" stroke-linecap="round" opacity="0.45"/><rect x="838" y="72" width="64" height="46" rx="4" ry="4" fill="#EAF0F5" stroke="#6E7B8B" stroke-width="1.2"/><circle cx="854" cy="84.88" r="4.14" fill="#FBEFD9" stroke="#E8A33D" stroke-width="0.9"/><polygon points="843,112 861.04,93.16 873.84,112" fill="#9EC0E0" stroke="#004282" stroke-width="0.9"/><polygon points="864.88,112 884.08,85.8 897,112" fill="#EEE8F6" stroke="#7651A8" stroke-width="0.9"/><rect x="838" y="112" width="64" height="6" fill="#7651A8"/><path d="M 902 95 C 910 95, 912 119, 918 119" stroke="#FFFFFF" stroke-width="1.5" fill="none" stroke-linecap="round" opacity="0.45"/><rect x="916" y="96" width="64" height="46" rx="4" ry="4" fill="#EAF0F5" stroke="#6E7B8B" stroke-width="1.2"/><circle cx="932" cy="108.88" r="4.14" fill="#FBEFD9" stroke="#E8A33D" stroke-width="0.9"/><polygon points="921,136 939.04,117.16 951.84,136" fill="#9EC0E0" stroke="#004282" stroke-width="0.9"/><polygon points="942.88,136 962.08,109.8 975,136" fill="#EEE8F6" stroke="#7651A8" stroke-width="0.9"/><rect x="916" y="136" width="64" height="6" fill="#1889A6"/><path d="M 980 119 C 988 119, 990 143, 996 143" stroke="#FFFFFF" stroke-width="1.5" fill="none" stroke-linecap="round" opacity="0.45"/><rect x="994" y="120" width="64" height="46" rx="4" ry="4" fill="#EAF0F5" stroke="#6E7B8B" stroke-width="1.2"/><circle cx="1010" cy="132.88" r="4.14" fill="#FBEFD9" stroke="#E8A33D" stroke-width="0.9"/><polygon points="999,160 1017.04,141.16 1029.84,160" fill="#9EC0E0" stroke="#004282" stroke-width="0.9"/><polygon points="1020.88,160 1040.08,133.8 1053,160" fill="#EEE8F6" stroke="#7651A8" stroke-width="0.9"/><rect x="994" y="160" width="64" height="6" fill="#E8A33D"/><path d="M 1058 143 C 1066 143, 1068 167, 1074 167" stroke="#FFFFFF" stroke-width="1.5" fill="none" stroke-linecap="round" opacity="0.45"/><rect x="1072" y="144" width="64" height="46" rx="4" ry="4" fill="#EAF0F5" stroke="#6E7B8B" stroke-width="1.2"/><circle cx="1088" cy="156.88" r="4.14" fill="#FBEFD9" stroke="#E8A33D" stroke-width="0.9"/><polygon points="1077,184 1095.04,165.16 1107.84,184" fill="#9EC0E0" stroke="#004282" stroke-width="0.9"/><polygon points="1098.88,184 1118.08,157.8 1131,184" fill="#EEE8F6" stroke="#7651A8" stroke-width="0.9"/><rect x="1072" y="184" width="64" height="6" fill="#1E7A46"/><path d="M 770 224 C 880 188, 1000 282, 1180 232" stroke="#8DB1D2" stroke-width="3" fill="none" stroke-linecap="round" opacity="0.55"/><rect x="840" y="260" width="34" height="28" rx="4" ry="4" fill="#FFFFFF" stroke="#8DB1D2" stroke-width="1" opacity="0.28"/><text x="857" y="279" font-family="Calibri" font-size="12" font-weight="bold" fill="#FFFFFF" text-anchor="middle" xml:space="preserve">W</text><rect x="896" y="278" width="34" height="28" rx="4" ry="4" fill="#FFFFFF" stroke="#8DB1D2" stroke-width="1" opacity="0.35"/><text x="913" y="297" font-family="Calibri" font-size="12" font-weight="bold" fill="#FFFFFF" text-anchor="middle" xml:space="preserve">A</text><rect x="952" y="260" width="34" height="28" rx="4" ry="4" fill="#FFFFFF" stroke="#8DB1D2" stroke-width="1" opacity="0.42"/><text x="969" y="279" font-family="Calibri" font-size="12" font-weight="bold" fill="#FFFFFF" text-anchor="middle" xml:space="preserve">S</text><rect x="1008" y="278" width="34" height="28" rx="4" ry="4" fill="#FFFFFF" stroke="#8DB1D2" stroke-width="1" opacity="0.49"/><text x="1025" y="297" font-family="Calibri" font-size="12" font-weight="bold" fill="#FFFFFF" text-anchor="middle" xml:space="preserve">D</text><rect x="1064" y="260" width="34" height="28" rx="4" ry="4" fill="#FFFFFF" stroke="#8DB1D2" stroke-width="1" opacity="0.56"/><text x="1081" y="279" font-family="Calibri" font-size="12" font-weight="bold" fill="#FFFFFF" text-anchor="middle" xml:space="preserve">F</text><rect x="1120" y="278" width="34" height="28" rx="4" ry="4" fill="#FFFFFF" stroke="#8DB1D2" stroke-width="1" opacity="0.63"/><text x="1137" y="297" font-family="Calibri" font-size="12" font-weight="bold" fill="#FFFFFF" text-anchor="middle" xml:space="preserve">↖</text><text x="1238" y="334" font-family="Calibri" font-size="14.5" font-weight="bold" fill="#8DB1D2" text-anchor="end" xml:space="preserve">screen  →  reason  →  act  →  remember</text></svg>