<svg xmlns="http://www.w3.org/2000/svg" xmlns:xlink="http://www.w3.org/1999/xlink" width="1152" height="410" viewBox="0 0 1152 410"><defs><marker id="arw-green" viewBox="0 0 10 10" refX="8.5" refY="5" markerWidth="6" markerHeight="6" orient="auto-start-reverse"><path d="M 0 1 L 9 5 L 0 9 z" fill="#1E7A46"/></marker><marker id="arw-navy" viewBox="0 0 10 10" refX="8.5" refY="5" markerWidth="6" markerHeight="6" orient="auto-start-reverse"><path d="M 0 1 L 9 5 L 0 9 z" fill="#004282"/></marker></defs><text x="0" y="18" font-family="Calibri" font-size="16" font-weight="bold" fill="#101010" text-anchor="start" xml:space="preserve">Naïve rollout-level RL</text><text x="1152" y="18" font-family="Calibri" font-size="13.5" font-weight="bold" fill="#C00000" text-anchor="end" xml:space="preserve">context overflow · sparse terminal reward</text><rect x="12" y="48" width="48" height="26" rx="3" ry="3" fill="#F0F3F7" stroke="#6E7B8B" stroke-width="0.8"/><line x1="60" y1="61" x2="73" y2="61" stroke="#6E7B8B" stroke-width="1" stroke-linecap="round"/><rect x="73" y="48" width="48" height="26" rx="3" ry="3" fill="#F0F3F7" stroke="#6E7B8B" stroke-width="0.8"/><line x1="121" y1="61" x2="134" y2="61" stroke="#6E7B8B" stroke-width="1" stroke-linecap="round"/><rect x="134" y="48" width="48" height="26" rx="3" ry="3" fill="#F0F3F7" stroke="#6E7B8B" stroke-width="0.8"/><line x1="182" y1="61" x2="195" y2="61" stroke="#6E7B8B" stroke-width="1" stroke-linecap="round"/><rect x="195" y="48" width="48" height="26" rx="3" ry="3" fill="#F0F3F7" stroke="#6E7B8B" stroke-width="0.8"/><line x1="243" y1="61" x2="256" y2="61" stroke="#6E7B8B" stroke-width="1" stroke-linecap="round"/><rect x="256" y="48" width="48" height="26" rx="3" ry="3" fill="#F0F3F7" stroke="#6E7B8B" stroke-width="0.8"/><line x1="304" y1="61" x2="317" y2="61" stroke="#6E7B8B" stroke-width="1" stroke-linecap="round"/><rect x="317" y="48" width="48" height="26" rx="3" ry="3" fill="#F0F3F7" stroke="#6E7B8B" stroke-width="0.8"/><line x1="365" y1="61" x2="378" y2="61" stroke="#6E7B8B" stroke-width="1" stroke-linecap="round"/><rect x="378" y="48" width="48" height="26" rx="3" ry="3" fill="#F0F3F7" stroke="#6E7B8B" stroke-width="0.8"/><line x1="426" y1="61" x2="439" y2="61" stroke="#6E7B8B" stroke-width="1" stroke-linecap="round"/><rect x="439" y="48" width="48" height="26" rx="3" ry="3" fill="#F0F3F7" stroke="#6E7B8B" stroke-width="0.8"/><line x1="487" y1="61" x2="500" y2="61" stroke="#6E7B8B" stroke-width="1" stroke-linecap="round"/><rect x="500" y="48" width="48" height="26" rx="3" ry="3" fill="#F0F3F7" stroke="#6E7B8B" stroke-width="0.8"/><line x1="548" y1="61" x2="561" y2="61" stroke="#6E7B8B" stroke-width="1" stroke-linecap="round"/><rect x="561" y="48" width="48" height="26" rx="3" ry="3" fill="#F0F3F7" stroke="#6E7B8B" stroke-width="0.8"/><line x1="609" y1="61" x2="622" y2="61" stroke="#6E7B8B" stroke-width="1" stroke-linecap="round"/><rect x="622" y="48" width="48" height="26" rx="3" ry="3" fill="#F0F3F7" stroke="#6E7B8B" stroke-width="0.8"/><line x1="670" y1="61" x2="683" y2="61" stroke="#6E7B8B" stroke-width="1" stroke-linecap="round"/><rect x="683" y="48" width="48" height="26" rx="3" ry="3" fill="#F0F3F7" stroke="#6E7B8B" stroke-width="0.8"/><line x1="731" y1="61" x2="744" y2="61" stroke="#6E7B8B" stroke-width="1" stroke-linecap="round"/><rect x="744" y="48" width="48" height="26" rx="3" ry="3" fill="#F0F3F7" stroke="#6E7B8B" stroke-width="0.8"/><line x1="792" y1="61" x2="805" y2="61" stroke="#6E7B8B" stroke-width="1" stroke-linecap="round"/><rect x="805" y="48" width="48" height="26" rx="3" ry="3" fill="#F0F3F7" stroke="#6E7B8B" stroke-width="0.8"/><line x1="853" y1="61" x2="866" y2="61" stroke="#6E7B8B" stroke-width="1" stroke-linecap="round"/><rect x="866" y="48" width="48" height="26" rx="3" ry="3" fill="#F0F3F7" stroke="#6E7B8B" stroke-width="0.8"/><line x1="914" y1="61" x2="927" y2="61" stroke="#6E7B8B" stroke-width="1" stroke-linecap="round"/><rect x="927" y="48" width="48" height="26" rx="3" ry="3" fill="#F0F3F7" stroke="#6E7B8B" stroke-width="0.8"/><line x1="975" y1="61" x2="988" y2="61" stroke="#6E7B8B" stroke-width="1" stroke-linecap="round"/><rect x="988" y="48" width="48" height="26" rx="3" ry="3" fill="#F0F3F7" stroke="#6E7B8B" stroke-width="0.8"/><line x1="1036" y1="61" x2="1049" y2="61" stroke="#6E7B8B" stroke-width="1" stroke-linecap="round"/><rect x="1049" y="48" width="48" height="26" rx="3" ry="3" fill="#F0F3F7" stroke="#6E7B8B" stroke-width="0.8"/><path d="M 12 86 L 1110 86" stroke="#C00000" stroke-width="2" fill="none" stroke-dasharray="7 5" stroke-linecap="round"/><text x="576" y="106" font-family="Calibri" font-size="13.5" font-weight="bold" fill="#C00000" text-anchor="middle" xml:space="preserve">one minute already exceeds typical language-task scale</text><text x="0" y="144" font-family="Calibri" font-size="16" font-weight="bold" fill="#101010" text-anchor="start" xml:space="preserve">TA-GRPO: segment, remember, reward locally</text><rect x="16" y="174" width="326" height="112" rx="7" ry="7" fill="#FFFFFF" stroke="#004282" stroke-width="1.5"/><text x="32" y="198" font-family="Calibri" font-size="13.5" font-weight="bold" fill="#004282" text-anchor="start" xml:space="preserve">SEGMENT 1</text><rect x="34" y="216" width="44" height="28" rx="3" ry="3" fill="#DCE8F5" stroke="#004282" stroke-width="0.8"/><rect x="90" y="216" width="44" height="28" rx="3" ry="3" fill="#DCE8F5" stroke="#004282" stroke-width="0.8"/><rect x="146" y="216" width="44" height="28" rx="3" ry="3" fill="#DCE8F5" stroke="#004282" stroke-width="0.8"/><rect x="202" y="216" width="44" height="28" rx="3" ry="3" fill="#DCE8F5" stroke="#004282" stroke-width="0.8"/><rect x="258" y="216" width="44" height="28" rx="3" ry="3" fill="#DCE8F5" stroke="#004282" stroke-width="0.8"/><text x="36" y="272" font-family="Calibri" font-size="13" font-weight="bold" fill="#101010" text-anchor="start" xml:space="preserve">verify  +  α · PRM</text><circle cx="294" cy="263" r="18" fill="#DFF0E4" stroke="#1E7A46" stroke-width="1.1"/><text x="294" y="269" font-family="Calibri" font-size="12.5" font-weight="bold" fill="#1E7A46" text-anchor="middle" xml:space="preserve">R1</text><path d="M 346 230 L 382 230" stroke="#004282" stroke-width="1.8" fill="none" stroke-linecap="round" marker-end="url(#arw-navy)"/><text x="364" y="218" font-family="Calibri" font-size="11" font-weight="bold" fill="#004282" text-anchor="middle" xml:space="preserve">memory</text><rect x="392" y="174" width="326" height="112" rx="7" ry="7" fill="#FFFFFF" stroke="#7651A8" stroke-width="1.5"/><text x="408" y="198" font-family="Calibri" font-size="13.5" font-weight="bold" fill="#7651A8" text-anchor="start" xml:space="preserve">SEGMENT 2</text><rect x="410" y="216" width="44" height="28" rx="3" ry="3" fill="#EEE8F6" stroke="#7651A8" stroke-width="0.8"/><rect x="466" y="216" width="44" height="28" rx="3" ry="3" fill="#EEE8F6" stroke="#7651A8" stroke-width="0.8"/><rect x="522" y="216" width="44" height="28" rx="3" ry="3" fill="#EEE8F6" stroke="#7651A8" stroke-width="0.8"/><rect x="578" y="216" width="44" height="28" rx="3" ry="3" fill="#EEE8F6" stroke="#7651A8" stroke-width="0.8"/><rect x="634" y="216" width="44" height="28" rx="3" ry="3" fill="#EEE8F6" stroke="#7651A8" stroke-width="0.8"/><text x="412" y="272" font-family="Calibri" font-size="13" font-weight="bold" fill="#101010" text-anchor="start" xml:space="preserve">verify  +  α · PRM</text><circle cx="670" cy="263" r="18" fill="#DFF0E4" stroke="#1E7A46" stroke-width="1.1"/><text x="670" y="269" font-family="Calibri" font-size="12.5" font-weight="bold" fill="#1E7A46" text-anchor="middle" xml:space="preserve">R2</text><path d="M 722 230 L 758 230" stroke="#004282" stroke-width="1.8" fill="none" stroke-linecap="round" marker-end="url(#arw-navy)"/><text x="740" y="218" font-family="Calibri" font-size="11" font-weight="bold" fill="#004282" text-anchor="middle" xml:space="preserve">memory</text><rect x="768" y="174" width="326" height="112" rx="7" ry="7" fill="#FFFFFF" stroke="#E8A33D" stroke-width="1.5"/><text x="784" y="198" font-family="Calibri" font-size="13.5" font-weight="bold" fill="#E8A33D" text-anchor="start" xml:space="preserve">SEGMENT 3</text><rect x="786" y="216" width="44" height="28" rx="3" ry="3" fill="#FBEFD9" stroke="#E8A33D" stroke-width="0.8"/><rect x="842" y="216" width="44" height="28" rx="3" ry="3" fill="#FBEFD9" stroke="#E8A33D" stroke-width="0.8"/><rect x="898" y="216" width="44" height="28" rx="3" ry="3" fill="#FBEFD9" stroke="#E8A33D" stroke-width="0.8"/><rect x="954" y="216" width="44" height="28" rx="3" ry="3" fill="#FBEFD9" stroke="#E8A33D" stroke-width="0.8"/><rect x="1010" y="216" width="44" height="28" rx="3" ry="3" fill="#FBEFD9" stroke="#E8A33D" stroke-width="0.8"/><text x="788" y="272" font-family="Calibri" font-size="13" font-weight="bold" fill="#101010" text-anchor="start" xml:space="preserve">verify  +  α · PRM</text><circle cx="1046" cy="263" r="18" fill="#DFF0E4" stroke="#1E7A46" stroke-width="1.1"/><text x="1046" y="269" font-family="Calibri" font-size="12.5" font-weight="bold" fill="#1E7A46" text-anchor="middle" xml:space="preserve">R3</text><text x="0" y="326" font-family="Calibri" font-size="15" font-weight="bold" fill="#101010" text-anchor="start" xml:space="preserve">Time-aware credit inside each segment</text><rect x="18" y="344" width="56" height="28" rx="3" ry="3" fill="#1E7A46" opacity="0.18"/><text x="46" y="363" font-family="Calibri" font-size="11" font-weight="bold" fill="#1E7A46" text-anchor="middle" xml:space="preserve">t0</text><rect x="90" y="344" width="56" height="28" rx="3" ry="3" fill="#1E7A46" opacity="0.27"/><text x="118" y="363" font-family="Calibri" font-size="11" font-weight="bold" fill="#1E7A46" text-anchor="middle" xml:space="preserve">t1</text><rect x="162" y="344" width="56" height="28" rx="3" ry="3" fill="#1E7A46" opacity="0.36"/><text x="190" y="363" font-family="Calibri" font-size="11" font-weight="bold" fill="#1E7A46" text-anchor="middle" xml:space="preserve">t2</text><rect x="234" y="344" width="56" height="28" rx="3" ry="3" fill="#1E7A46" opacity="0.45"/><text x="262" y="363" font-family="Calibri" font-size="11" font-weight="bold" fill="#1E7A46" text-anchor="middle" xml:space="preserve">t3</text><rect x="306" y="344" width="56" height="28" rx="3" ry="3" fill="#1E7A46" opacity="0.54"/><text x="334" y="363" font-family="Calibri" font-size="11" font-weight="bold" fill="#1E7A46" text-anchor="middle" xml:space="preserve">t4</text><rect x="378" y="344" width="56" height="28" rx="3" ry="3" fill="#1E7A46" opacity="0.63"/><text x="406" y="363" font-family="Calibri" font-size="11" font-weight="bold" fill="#FFFFFF" text-anchor="middle" xml:space="preserve">t5</text><rect x="450" y="344" width="56" height="28" rx="3" ry="3" fill="#1E7A46" opacity="0.72"/><text x="478" y="363" font-family="Calibri" font-size="11" font-weight="bold" fill="#FFFFFF" text-anchor="middle" xml:space="preserve">t6</text><rect x="522" y="344" width="56" height="28" rx="3" ry="3" fill="#1E7A46" opacity="0.81"/><text x="550" y="363" font-family="Calibri" font-size="11" font-weight="bold" fill="#FFFFFF" text-anchor="middle" xml:space="preserve">t7</text><rect x="594" y="344" width="56" height="28" rx="3" ry="3" fill="#1E7A46" opacity="0.9"/><text x="622" y="363" font-family="Calibri" font-size="11" font-weight="bold" fill="#FFFFFF" text-anchor="middle" xml:space="preserve">t8</text><path d="M 670 358 L 790 358" stroke="#1E7A46" stroke-width="2" fill="none" stroke-linecap="round" marker-end="url(#arw-green)"/><text x="899.26" y="365" font-family="Calibri" font-size="20" font-style="italic" fill="#101010" text-anchor="start" xml:space="preserve">A</text><text x="910.83" y="369" font-family="Calibri" font-size="13.6" font-style="italic" fill="#101010" text-anchor="start" xml:space="preserve">g,t</text><text x="925.45" y="365" font-family="Calibri" font-size="20" font-style="italic" fill="#101010" text-anchor="start" xml:space="preserve"> = β</text><text x="955.01" y="358.2" font-family="Calibri" font-size="13.6" font-style="italic" fill="#101010" text-anchor="start" xml:space="preserve">T_g−1−t</text><text x="1000.4" y="365" font-family="Calibri" font-size="20" font-style="italic" fill="#101010" text-anchor="start" xml:space="preserve"> A_g</text></svg>