<svg xmlns="http://www.w3.org/2000/svg" xmlns:xlink="http://www.w3.org/1999/xlink" width="1152" height="410" viewBox="0 0 1152 410"><defs><marker id="arw-navy" viewBox="0 0 10 10" refX="8.5" refY="5" markerWidth="6" markerHeight="6" orient="auto-start-reverse"><path d="M 0 1 L 9 5 L 0 9 z" fill="#004282"/></marker></defs><text x="0" y="18" font-family="Calibri" font-size="15" font-weight="bold" fill="#C00000" text-anchor="start" xml:space="preserve">Without compaction</text><text x="1146" y="18" font-family="Calibri" font-size="13" font-weight="bold" fill="#C00000" text-anchor="end" xml:space="preserve">hour-long trajectory → context OOM</text><rect x="8" y="42" width="40" height="24" rx="3" ry="3" fill="#DCE8F5" stroke="#004282" stroke-width="0.7"/><rect x="58" y="42" width="40" height="24" rx="3" ry="3" fill="#DCE8F5" stroke="#004282" stroke-width="0.7"/><rect x="108" y="42" width="40" height="24" rx="3" ry="3" fill="#DCE8F5" stroke="#004282" stroke-width="0.7"/><rect x="158" y="42" width="40" height="24" rx="3" ry="3" fill="#DCE8F5" stroke="#004282" stroke-width="0.7"/><rect x="208" y="42" width="40" height="24" rx="3" ry="3" fill="#DCE8F5" stroke="#004282" stroke-width="0.7"/><rect x="258" y="42" width="40" height="24" rx="3" ry="3" fill="#DCE8F5" stroke="#004282" stroke-width="0.7"/><rect x="308" y="42" width="40" height="24" rx="3" ry="3" fill="#DCE8F5" stroke="#004282" stroke-width="0.7"/><rect x="358" y="42" width="40" height="24" rx="3" ry="3" fill="#EEE8F6" stroke="#7651A8" stroke-width="0.7"/><rect x="408" y="42" width="40" height="24" rx="3" ry="3" fill="#EEE8F6" stroke="#7651A8" stroke-width="0.7"/><rect x="458" y="42" width="40" height="24" rx="3" ry="3" fill="#EEE8F6" stroke="#7651A8" stroke-width="0.7"/><rect x="508" y="42" width="40" height="24" rx="3" ry="3" fill="#EEE8F6" stroke="#7651A8" stroke-width="0.7"/><rect x="558" y="42" width="40" height="24" rx="3" ry="3" fill="#EEE8F6" stroke="#7651A8" stroke-width="0.7"/><rect x="608" y="42" width="40" height="24" rx="3" ry="3" fill="#EEE8F6" stroke="#7651A8" stroke-width="0.7"/><rect x="658" y="42" width="40" height="24" rx="3" ry="3" fill="#EEE8F6" stroke="#7651A8" stroke-width="0.7"/><rect x="708" y="42" width="40" height="24" rx="3" ry="3" fill="#FBEFD9" stroke="#E8A33D" stroke-width="0.7"/><rect x="758" y="42" width="40" height="24" rx="3" ry="3" fill="#FBEFD9" stroke="#E8A33D" stroke-width="0.7"/><rect x="808" y="42" width="40" height="24" rx="3" ry="3" fill="#FBEFD9" stroke="#E8A33D" stroke-width="0.7"/><rect x="858" y="42" width="40" height="24" rx="3" ry="3" fill="#FBEFD9" stroke="#E8A33D" stroke-width="0.7"/><rect x="908" y="42" width="40" height="24" rx="3" ry="3" fill="#FBEFD9" stroke="#E8A33D" stroke-width="0.7"/><rect x="958" y="42" width="40" height="24" rx="3" ry="3" fill="#FBEFD9" stroke="#E8A33D" stroke-width="0.7"/><rect x="1008" y="42" width="40" height="24" rx="3" ry="3" fill="#FBEFD9" stroke="#E8A33D" stroke-width="0.7"/><rect x="1058" y="42" width="40" height="24" rx="3" ry="3" fill="#DCE8F5" stroke="#004282" stroke-width="0.7"/><line x1="8" y1="78" x2="1100" y2="78" stroke="#C00000" stroke-width="1.8" stroke-dasharray="7 5" stroke-linecap="round"/><text x="554" y="98" font-family="Calibri" font-size="12.5" font-weight="bold" fill="#C00000" text-anchor="middle" xml:space="preserve">one terminal reward cannot explain which local action failed</text><text x="0" y="132" font-family="Calibri" font-size="15" font-weight="bold" fill="#101010" text-anchor="start" xml:space="preserve">TA-GRPO with memory-compacted segments</text><rect x="12" y="156" width="326" height="112" rx="6" ry="6" fill="#FFFFFF" stroke="#004282" stroke-width="1.4"/><text x="26" y="178" font-family="Calibri" font-size="13.5" font-weight="bold" fill="#004282" text-anchor="start" xml:space="preserve">SEGMENT τ₁</text><rect x="26" y="192" width="44" height="26" rx="3" ry="3" fill="#DCE8F5" stroke="#004282" stroke-width="0.8"/><text x="48" y="210" font-family="Calibri" font-size="10.5" font-weight="bold" fill="#004282" text-anchor="middle" xml:space="preserve">V</text><rect x="82" y="192" width="44" height="26" rx="3" ry="3" fill="#DCE8F5" stroke="#004282" stroke-width="0.8"/><text x="104" y="210" font-family="Calibri" font-size="10.5" font-weight="bold" fill="#004282" text-anchor="middle" xml:space="preserve">r</text><rect x="138" y="192" width="44" height="26" rx="3" ry="3" fill="#DCE8F5" stroke="#004282" stroke-width="0.8"/><text x="160" y="210" font-family="Calibri" font-size="10.5" font-weight="bold" fill="#004282" text-anchor="middle" xml:space="preserve">A</text><rect x="194" y="192" width="44" height="26" rx="3" ry="3" fill="#DCE8F5" stroke="#004282" stroke-width="0.8"/><text x="216" y="210" font-family="Calibri" font-size="10.5" font-weight="bold" fill="#004282" text-anchor="middle" xml:space="preserve">V</text><rect x="250" y="192" width="44" height="26" rx="3" ry="3" fill="#DCE8F5" stroke="#004282" stroke-width="0.8"/><text x="272" y="210" font-family="Calibri" font-size="10.5" font-weight="bold" fill="#004282" text-anchor="middle" xml:space="preserve">A</text><rect x="26" y="230" width="132" height="26" rx="4" ry="4" fill="#DFF0E4" stroke="#1E7A46" stroke-width="0.9"/><text x="92" y="248" font-family="Calibri" font-size="11.5" font-weight="bold" fill="#1E7A46" text-anchor="middle" xml:space="preserve">Rᵍ ∈ {0,1}</text><rect x="170" y="230" width="150" height="26" rx="4" ry="4" fill="#FBE4E4" stroke="#C00000" stroke-width="0.9"/><text x="245" y="248" font-family="Calibri" font-size="11.5" font-weight="bold" fill="#C00000" text-anchor="middle" xml:space="preserve">+ α · PRMᵍ,ₜ</text><path d="M 342 208 L 380 208" stroke="#004282" stroke-width="1.7" fill="none" stroke-linecap="round" marker-end="url(#arw-navy)"/><text x="361" y="198" font-family="Calibri" font-size="10.5" font-weight="bold" fill="#004282" text-anchor="middle" xml:space="preserve">m₁→m₂</text><rect x="394" y="156" width="326" height="112" rx="6" ry="6" fill="#FFFFFF" stroke="#7651A8" stroke-width="1.4"/><text x="408" y="178" font-family="Calibri" font-size="13.5" font-weight="bold" fill="#7651A8" text-anchor="start" xml:space="preserve">SEGMENT τ₂</text><rect x="408" y="192" width="44" height="26" rx="3" ry="3" fill="#EEE8F6" stroke="#7651A8" stroke-width="0.8"/><text x="430" y="210" font-family="Calibri" font-size="10.5" font-weight="bold" fill="#7651A8" text-anchor="middle" xml:space="preserve">V</text><rect x="464" y="192" width="44" height="26" rx="3" ry="3" fill="#EEE8F6" stroke="#7651A8" stroke-width="0.8"/><text x="486" y="210" font-family="Calibri" font-size="10.5" font-weight="bold" fill="#7651A8" text-anchor="middle" xml:space="preserve">r</text><rect x="520" y="192" width="44" height="26" rx="3" ry="3" fill="#EEE8F6" stroke="#7651A8" stroke-width="0.8"/><text x="542" y="210" font-family="Calibri" font-size="10.5" font-weight="bold" fill="#7651A8" text-anchor="middle" xml:space="preserve">A</text><rect x="576" y="192" width="44" height="26" rx="3" ry="3" fill="#EEE8F6" stroke="#7651A8" stroke-width="0.8"/><text x="598" y="210" font-family="Calibri" font-size="10.5" font-weight="bold" fill="#7651A8" text-anchor="middle" xml:space="preserve">V</text><rect x="632" y="192" width="44" height="26" rx="3" ry="3" fill="#EEE8F6" stroke="#7651A8" stroke-width="0.8"/><text x="654" y="210" font-family="Calibri" font-size="10.5" font-weight="bold" fill="#7651A8" text-anchor="middle" xml:space="preserve">A</text><rect x="408" y="230" width="132" height="26" rx="4" ry="4" fill="#DFF0E4" stroke="#1E7A46" stroke-width="0.9"/><text x="474" y="248" font-family="Calibri" font-size="11.5" font-weight="bold" fill="#1E7A46" text-anchor="middle" xml:space="preserve">Rᵍ ∈ {0,1}</text><rect x="552" y="230" width="150" height="26" rx="4" ry="4" fill="#FBE4E4" stroke="#C00000" stroke-width="0.9"/><text x="627" y="248" font-family="Calibri" font-size="11.5" font-weight="bold" fill="#C00000" text-anchor="middle" xml:space="preserve">+ α · PRMᵍ,ₜ</text><path d="M 724 208 L 762 208" stroke="#004282" stroke-width="1.7" fill="none" stroke-linecap="round" marker-end="url(#arw-navy)"/><text x="743" y="198" font-family="Calibri" font-size="10.5" font-weight="bold" fill="#004282" text-anchor="middle" xml:space="preserve">m₂→m₃</text><rect x="776" y="156" width="326" height="112" rx="6" ry="6" fill="#FFFFFF" stroke="#E8A33D" stroke-width="1.4"/><text x="790" y="178" font-family="Calibri" font-size="13.5" font-weight="bold" fill="#E8A33D" text-anchor="start" xml:space="preserve">SEGMENT τ₃</text><rect x="790" y="192" width="44" height="26" rx="3" ry="3" fill="#FBEFD9" stroke="#E8A33D" stroke-width="0.8"/><text x="812" y="210" font-family="Calibri" font-size="10.5" font-weight="bold" fill="#E8A33D" text-anchor="middle" xml:space="preserve">V</text><rect x="846" y="192" width="44" height="26" rx="3" ry="3" fill="#FBEFD9" stroke="#E8A33D" stroke-width="0.8"/><text x="868" y="210" font-family="Calibri" font-size="10.5" font-weight="bold" fill="#E8A33D" text-anchor="middle" xml:space="preserve">r</text><rect x="902" y="192" width="44" height="26" rx="3" ry="3" fill="#FBEFD9" stroke="#E8A33D" stroke-width="0.8"/><text x="924" y="210" font-family="Calibri" font-size="10.5" font-weight="bold" fill="#E8A33D" text-anchor="middle" xml:space="preserve">A</text><rect x="958" y="192" width="44" height="26" rx="3" ry="3" fill="#FBEFD9" stroke="#E8A33D" stroke-width="0.8"/><text x="980" y="210" font-family="Calibri" font-size="10.5" font-weight="bold" fill="#E8A33D" text-anchor="middle" xml:space="preserve">V</text><rect x="1014" y="192" width="44" height="26" rx="3" ry="3" fill="#FBEFD9" stroke="#E8A33D" stroke-width="0.8"/><text x="1036" y="210" font-family="Calibri" font-size="10.5" font-weight="bold" fill="#E8A33D" text-anchor="middle" xml:space="preserve">A</text><rect x="790" y="230" width="132" height="26" rx="4" ry="4" fill="#DFF0E4" stroke="#1E7A46" stroke-width="0.9"/><text x="856" y="248" font-family="Calibri" font-size="11.5" font-weight="bold" fill="#1E7A46" text-anchor="middle" xml:space="preserve">Rᵍ ∈ {0,1}</text><rect x="934" y="230" width="150" height="26" rx="4" ry="4" fill="#FBE4E4" stroke="#C00000" stroke-width="0.9"/><text x="1009" y="248" font-family="Calibri" font-size="11.5" font-weight="bold" fill="#C00000" text-anchor="middle" xml:space="preserve">+ α · PRMᵍ,ₜ</text><text x="0" y="306" font-family="Calibri" font-size="14.5" font-weight="bold" fill="#101010" text-anchor="start" xml:space="preserve">Trajectory-aware credit assignment</text><rect x="8" y="326" width="210" height="52" rx="5" ry="5" fill="#DCE8F5" stroke="#004282" stroke-width="1.1"/><text x="18" y="344" font-family="Calibri" font-size="11.5" font-weight="bold" fill="#004282" text-anchor="start" xml:space="preserve">local reward</text><text x="113" y="366" font-family="Calibri" font-size="12.5" font-weight="bold" fill="#101010" text-anchor="middle" xml:space="preserve">rᵍ,ₜ = Rᵍ + α·PRMᵍ,ₜ</text><path d="M 220 352 L 244 352" stroke="#004282" stroke-width="1.4" fill="none" stroke-linecap="round" marker-end="url(#arw-navy)"/><rect x="246" y="326" width="226" height="52" rx="5" ry="5" fill="#EEE8F6" stroke="#7651A8" stroke-width="1.1"/><text x="256" y="344" font-family="Calibri" font-size="11.5" font-weight="bold" fill="#7651A8" text-anchor="start" xml:space="preserve">time discount</text><text x="359" y="366" font-family="Calibri" font-size="12.5" font-weight="bold" fill="#101010" text-anchor="middle" xml:space="preserve">r̃ᵍ,ₜ = βᵀ⁻¹⁻ᵗ rᵍ,ₜ</text><path d="M 474 352 L 498 352" stroke="#004282" stroke-width="1.4" fill="none" stroke-linecap="round" marker-end="url(#arw-navy)"/><rect x="500" y="326" width="196" height="52" rx="5" ry="5" fill="#FBEFD9" stroke="#E8A33D" stroke-width="1.1"/><text x="510" y="344" font-family="Calibri" font-size="11.5" font-weight="bold" fill="#E8A33D" text-anchor="start" xml:space="preserve">group normalize</text><text x="598" y="366" font-family="Calibri" font-size="12.5" font-weight="bold" fill="#101010" text-anchor="middle" xml:space="preserve">Aᵍ = (r̄ᵍ−μ)/σ</text><path d="M 698 352 L 722 352" stroke="#004282" stroke-width="1.4" fill="none" stroke-linecap="round" marker-end="url(#arw-navy)"/><rect x="724" y="326" width="210" height="52" rx="5" ry="5" fill="#DFF0E4" stroke="#1E7A46" stroke-width="1.1"/><text x="734" y="344" font-family="Calibri" font-size="11.5" font-weight="bold" fill="#1E7A46" text-anchor="start" xml:space="preserve">token credit</text><text x="829" y="366" font-family="Calibri" font-size="12.5" font-weight="bold" fill="#101010" text-anchor="middle" xml:space="preserve">Aᵍ,ₜ = βᵀ⁻¹⁻ᵗ Aᵍ</text></svg>