<svg xmlns="http://www.w3.org/2000/svg" xmlns:xlink="http://www.w3.org/1999/xlink" width="1280" height="720" viewBox="0 0 1280 720"><rect x="0" y="0" width="1280" height="720" fill="#FFFFFF"/><text x="64" y="107" font-family="Calibri" font-size="40" font-weight="bold" fill="#101010" text-anchor="start" xml:space="preserve"><tspan fill="#101010">Step 3 — turn the prior into a target length</tspan></text><rect x="57" y="566" width="1166" height="78" fill="#FFFFFF" stroke="#004282" stroke-width="2.2"/><text x="217.59" y="614.8" font-family="Calibri" font-size="28" font-weight="bold" fill="#004282" text-anchor="start" xml:space="preserve"><tspan fill="#004282">The text prior becomes an explicit </tspan><tspan fill="#C00000">target length</tspan><tspan fill="#004282"> — still no concept labels.</tspan></text><text x="574.45" y="699.55" font-family="Calibri" font-size="13" font-weight="bold" fill="#3C4A57" text-anchor="start" xml:space="preserve"><tspan fill="#3C4A57">Section 3.3 of the paper.</tspan></text><g transform="translate(64,146)"><rect x="0" y="0" width="1152" height="96" rx="8" ry="8" fill="#F0F3F7" stroke="#6E7B8B" stroke-width="1.5"/><text x="40" y="62" font-family="Calibri" font-size="38" font-style="italic" fill="#101010" text-anchor="start" xml:space="preserve">L = floor( M · S · [ 1 − Norm(N</text><text x="486.27" y="69.6" font-family="Calibri" font-size="25.84" font-style="italic" fill="#101010" text-anchor="start" xml:space="preserve">key</text><text x="520.89" y="62" font-family="Calibri" font-size="38" font-style="italic" fill="#101010" text-anchor="start" xml:space="preserve">) ] )</text><line x1="86" y1="74" x2="86" y2="92" stroke="#004282" stroke-width="1.6" stroke-linecap="round"/><text x="86" y="112" font-family="Calibri" font-size="15" font-weight="bold" fill="#004282" text-anchor="middle" xml:space="preserve">M</text><text x="86" y="132" font-family="Calibri" font-size="13" fill="#6E7B8B" text-anchor="middle" xml:space="preserve">input vision tokens</text><line x1="206" y1="74" x2="206" y2="92" stroke="#E8A33D" stroke-width="1.6" stroke-linecap="round"/><text x="206" y="112" font-family="Calibri" font-size="15" font-weight="bold" fill="#E8A33D" text-anchor="middle" xml:space="preserve">S</text><text x="206" y="132" font-family="Calibri" font-size="13" fill="#6E7B8B" text-anchor="middle" xml:space="preserve">information domain</text><line x1="400" y1="74" x2="400" y2="92" stroke="#C00000" stroke-width="1.6" stroke-linecap="round"/><text x="400" y="112" font-family="Calibri" font-size="15" font-weight="bold" fill="#C00000" text-anchor="middle" xml:space="preserve">N_key</text><text x="400" y="132" font-family="Calibri" font-size="13" fill="#6E7B8B" text-anchor="middle" xml:space="preserve">keyword gap</text><rect x="0" y="152" width="470" height="230" rx="8" ry="8" fill="#FFFFFF" stroke="#C9D6E4" stroke-width="1.4"/><text x="16" y="177" font-family="Calibri" font-size="17" font-weight="bold" fill="#004282" text-anchor="start" xml:space="preserve">The information domain sets the budget</text><rect x="24" y="200" width="400" height="30" rx="3" ry="3" fill="#004282"/><text x="34" y="220.04" font-family="Calibri" font-size="14" font-weight="bold" fill="#FFFFFF" text-anchor="start" xml:space="preserve">S</text><text x="209" y="220.04" font-family="Calibri" font-size="14" font-weight="bold" fill="#FFFFFF" text-anchor="middle" xml:space="preserve">max tokens</text><text x="354" y="220.04" font-family="Calibri" font-size="14" font-weight="bold" fill="#FFFFFF" text-anchor="middle" xml:space="preserve">Avg. (%)</text><text x="34" y="249.76" font-family="Calibri" font-size="14" fill="#101010" text-anchor="start" xml:space="preserve">1/2</text><text x="209" y="249.76" font-family="Calibri" font-size="14" fill="#101010" text-anchor="middle" xml:space="preserve">288</text><text x="354" y="249.76" font-family="Calibri" font-size="14" fill="#101010" text-anchor="middle" xml:space="preserve">58.9</text><rect x="24" y="260" width="400" height="30" fill="#DCE8F5" stroke="#004282" stroke-width="1.3"/><text x="34" y="279.76" font-family="Calibri" font-size="14" font-weight="bold" fill="#004282" text-anchor="start" xml:space="preserve">1/4</text><text x="209" y="279.76" font-family="Calibri" font-size="14" font-weight="bold" fill="#004282" text-anchor="middle" xml:space="preserve">144</text><text x="354" y="279.76" font-family="Calibri" font-size="14" font-weight="bold" fill="#004282" text-anchor="middle" xml:space="preserve">59.3</text><text x="34" y="309.76" font-family="Calibri" font-size="14" fill="#101010" text-anchor="start" xml:space="preserve">1/6</text><text x="209" y="309.76" font-family="Calibri" font-size="14" fill="#101010" text-anchor="middle" xml:space="preserve">72</text><text x="354" y="309.76" font-family="Calibri" font-size="14" fill="#101010" text-anchor="middle" xml:space="preserve">56.4</text><rect x="24" y="320" width="400" height="30" fill="#F0F3F7"/><text x="34" y="339.76" font-family="Calibri" font-size="14" fill="#101010" text-anchor="start" xml:space="preserve">1/8</text><text x="209" y="339.76" font-family="Calibri" font-size="14" fill="#101010" text-anchor="middle" xml:space="preserve">36</text><text x="354" y="339.76" font-family="Calibri" font-size="14" fill="#101010" text-anchor="middle" xml:space="preserve">57.2</text><text x="24" y="384" font-family="Calibri" font-size="12" fill="#8A97A6" text-anchor="start" xml:space="preserve">Avg. over 4 VQA benchmarks (Table 4).</text><rect x="500" y="152" width="652" height="230" rx="8" ry="8" fill="#FFFFFF" stroke="#C9D6E4" stroke-width="1.4"/><text x="516" y="177" font-family="Calibri" font-size="17" font-weight="bold" fill="#004282" text-anchor="start" xml:space="preserve">The keyword gap moves the target length</text><line x1="566" y1="210" x2="566" y2="342" stroke="#6E7B8B" stroke-width="1.5" stroke-linecap="round"/><line x1="566" y1="342" x2="1036" y2="342" stroke="#6E7B8B" stroke-width="1.5" stroke-linecap="round"/><path d="M 566.0 210.0 L 576.4 213.7 L 586.9 216.4 L 597.3 219.2 L 607.8 221.9 L 618.2 224.7 L 628.7 228.3 L 639.1 231.1 L 649.6 233.8 L 660.0 236.6 L 670.4 239.3 L 680.9 243.0 L 691.3 245.8 L 701.8 248.5 L 712.2 251.2 L 722.7 254.0 L 733.1 257.7 L 743.6 260.4 L 754.0 263.2 L 764.4 265.9 L 774.9 268.7 L 785.3 272.3 L 795.8 275.1 L 806.2 277.8 L 816.7 280.6 L 827.1 283.3 L 837.6 287.0 L 848.0 289.8 L 858.4 292.5 L 868.9 295.2 L 879.3 298.0 L 889.8 301.7 L 900.2 304.4 L 910.7 307.2 L 921.1 309.9 L 931.6 312.7 L 942.0 316.3 L 952.4 319.1 L 962.9 321.8 L 973.3 324.6 L 983.8 327.3 L 994.2 331.0 L 1004.7 333.8 L 1015.1 336.5 L 1025.6 339.2 L 1036.0 342.0" stroke="#004282" stroke-width="3" fill="none" stroke-linecap="round"/><circle cx="566" cy="210" r="4.6" fill="#FFFFFF" stroke="#004282" stroke-width="2"/><text x="566" y="198" font-family="Calibri" font-size="13" font-weight="bold" fill="#004282" text-anchor="middle" xml:space="preserve">144</text><circle cx="795.78" cy="275.08" r="4.6" fill="#FFFFFF" stroke="#004282" stroke-width="2"/><text x="795.78" y="263.08" font-family="Calibri" font-size="13" font-weight="bold" fill="#004282" text-anchor="middle" xml:space="preserve">70</text><circle cx="1036" cy="342" r="4.6" fill="#FFFFFF" stroke="#004282" stroke-width="2"/><text x="1036" y="330" font-family="Calibri" font-size="13" font-weight="bold" fill="#004282" text-anchor="middle" xml:space="preserve">0</text><text x="556" y="216" font-family="Calibri" font-size="15" font-weight="bold" fill="#004282" text-anchor="end" xml:space="preserve">L</text><text x="556" y="342" font-family="Calibri" font-size="13" fill="#6E7B8B" text-anchor="end" xml:space="preserve">0</text><text x="566" y="362" font-family="Calibri" font-size="13" fill="#6E7B8B" text-anchor="middle" xml:space="preserve">−35</text><text x="1036" y="362" font-family="Calibri" font-size="13" fill="#6E7B8B" text-anchor="middle" xml:space="preserve">+10</text><text x="801" y="362" font-family="Calibri" font-size="13.5" font-weight="bold" fill="#6E7B8B" text-anchor="middle" xml:space="preserve">keyword gap N_key  (instruction − response)</text><text x="566" y="388" font-family="Calibri" font-size="12" fill="#8A97A6" text-anchor="start" xml:space="preserve">Exact evaluation of the formula at M = 576, S = 1/4; N_key is clipped to [−35, +10].</text></g></svg>